{"glyphs":{"0":{"ha":682,"x_min":38,"x_max":643,"o":"m 340 -17 q 556 181 475 57 q 643 458 643 311 q 563 719 643 610 q 340 888 483 829 q 38 410 38 685 q 121 149 38 263 q 340 -17 199 40 m 446 110 l 446 108 q 226 254 308 160 q 139 499 139 358 q 140 515 139 508 l 140 531 q 229 758 150 653 q 457 611 372 724 q 540 351 540 500 q 446 110 540 208 z "},"1":{"ha":682,"x_min":144,"x_max":536,"o":"m 144 760 l 165 735 l 208 767 q 225 753 219 760 q 263 633 263 721 l 263 144 l 215 92 l 371 -17 l 536 119 l 514 144 l 451 94 q 401 203 401 119 l 401 675 q 394 771 401 739 q 344 851 382 815 q 294 889 311 878 l 144 760 z "},"2":{"ha":682,"x_min":31,"x_max":629,"o":"m 53 681 l 146 589 l 399 793 q 458 651 458 733 q 397 464 458 557 q 263 314 358 406 l 251 303 q 166 215 199 250 q 118 163 133 181 q 31 -6 49 76 l 47 -17 q 289 36 172 36 q 511 -17 399 36 l 629 115 q 374 164 483 164 q 122 108 264 164 q 165 153 142 131 q 219 199 189 175 q 262 229 235 210 q 329 275 289 249 q 521 426 471 369 q 608 646 608 522 l 608 675 l 608 689 q 607 704 607 696 l 308 889 l 53 681 z "},"3":{"ha":682,"x_min":42,"x_max":639,"o":"m 42 193 l 293 -17 q 365 5 333 -4 q 417 21 396 14 q 639 247 639 101 q 572 397 639 336 q 422 472 515 449 q 604 733 604 539 l 604 743 l 604 747 q 603 753 603 750 l 300 889 l 101 740 l 183 651 l 315 749 l 357 782 q 406 800 383 800 q 443 754 439 800 q 444 747 444 753 l 444 739 q 381 556 444 614 q 193 493 322 503 l 193 447 q 228 449 211 449 q 264 450 246 450 q 425 379 368 450 q 478 208 478 314 l 478 192 q 476 181 476 185 q 476 174 476 176 q 414 65 465 88 l 142 289 l 42 193 z "},"4":{"ha":682,"x_min":35,"x_max":649,"o":"m 361 274 l 361 146 l 314 82 l 463 -17 l 625 111 l 607 133 q 599 128 603 131 q 593 124 596 125 q 557 107 574 107 q 535 113 544 107 q 496 135 507 122 l 496 274 l 649 274 l 625 393 l 496 393 l 496 699 q 481 817 496 783 q 390 889 463 861 l 35 403 l 63 274 l 361 274 m 361 393 l 64 393 l 325 750 q 361 665 360 729 l 361 656 l 361 393 z "},"5":{"ha":682,"x_min":56,"x_max":628,"o":"m 56 131 l 311 -17 q 535 104 463 32 q 628 333 628 193 q 568 506 628 433 q 418 618 519 564 l 154 443 l 206 738 l 531 738 l 583 871 l 197 871 l 108 374 l 290 493 q 513 238 513 429 q 435 76 513 135 l 150 239 l 56 131 z "},"6":{"ha":682,"x_min":46,"x_max":636,"o":"m 601 765 l 376 888 q 46 368 46 644 q 125 126 46 226 q 342 -17 204 26 q 539 132 476 67 q 636 353 636 233 q 463 581 636 503 l 174 406 q 276 776 174 603 l 506 653 l 601 765 m 178 372 l 344 472 q 467 393 426 432 q 526 263 526 338 q 453 94 526 168 q 281 188 374 94 q 178 372 189 282 z "},"7":{"ha":682,"x_min":44,"x_max":638,"o":"m 44 628 l 79 626 q 176 724 118 701 q 315 740 218 742 l 510 739 q 361 557 425 643 q 254 392 297 471 q 136 -17 140 185 l 321 47 q 635 833 329 510 l 638 871 l 165 871 l 44 628 z "},"8":{"ha":682,"x_min":53,"x_max":629,"o":"m 364 -15 q 540 125 485 63 q 629 325 629 222 q 585 451 629 396 q 472 529 540 506 q 594 714 594 622 q 417 879 594 843 q 370 887 393 885 q 328 889 347 889 l 310 889 q 300 888 306 888 l 283 888 l 279 888 q 274 886 276 886 l 240 853 q 220 831 229 840 q 206 815 211 822 q 71 594 88 685 q 67 556 67 579 q 181 410 67 449 q 53 190 53 299 q 149 32 53 90 q 338 -17 231 -17 l 351 -17 q 358 -15 353 -15 l 364 -15 m 219 401 l 219 400 q 365 383 282 400 q 506 342 453 365 q 565 244 565 311 q 528 165 565 192 q 394 126 472 126 q 356 128 375 126 q 317 133 336 131 q 203 181 244 146 q 150 285 149 222 q 219 401 153 338 m 197 756 l 197 754 l 236 754 q 431 731 367 754 q 496 646 496 708 q 425 539 496 589 q 308 551 347 547 q 160 656 160 571 q 197 756 160 701 z "},"9":{"ha":682,"x_min":50,"x_max":633,"o":"m 90 107 l 326 -17 q 633 489 633 208 q 338 888 633 767 q 226 813 274 849 q 146 743 178 778 q 50 531 50 644 q 219 286 50 369 l 504 460 q 506 435 504 451 q 507 411 507 419 q 408 103 507 250 l 185 224 l 90 107 m 497 499 l 336 399 q 282 435 308 417 q 228 471 256 453 q 158 619 158 525 q 224 765 158 704 q 401 671 324 747 q 497 499 478 599 z "},"\u0007":{"ha":694,"x_min":0,"x_max":0,"o":""},"\u0005":{"ha":694,"x_min":151,"x_max":543,"o":"m 543 944 l 479 943 q 346 847 451 847 q 217 944 239 847 l 151 943 q 212 820 158 864 q 346 776 265 776 q 543 944 525 776 z "},"\u0006":{"ha":694,"x_min":261,"x_max":435,"o":"m 261 878 l 349 790 l 435 878 l 349 965 l 261 878 z "},"\b":{"ha":694,"x_min":218,"x_max":476,"o":"m 347 728 l 347 726 q 431 788 385 726 q 476 889 476 847 q 347 1035 476 994 l 342 1032 q 218 874 218 969 q 347 728 218 767 m 389 786 l 389 785 q 365 793 371 789 q 269 901 269 832 q 272 919 269 908 q 303 976 281 954 q 383 936 343 976 q 424 854 424 896 q 389 786 424 813 z "},"\n":{"ha":694,"x_min":542,"x_max":761,"o":"m 621 0 q 542 -140 542 -62 q 588 -217 547 -187 q 674 -243 622 -243 q 761 -229 719 -243 l 760 -172 q 689 -182 731 -182 q 614 -112 614 -176 q 686 -1 614 -57 l 689 -1 l 690 0 l 621 0 z "},"\u000b":{"ha":694,"x_min":224,"x_max":638,"o":"m 436 950 l 318 950 l 224 761 l 301 761 l 436 950 m 638 950 l 519 950 l 425 761 l 503 761 l 638 950 z "},"\f":{"ha":694,"x_min":133,"x_max":563,"o":"m 563 967 l 532 982 l 424 872 l 221 982 l 133 893 l 364 760 l 563 967 z "},"\r":{"ha":339,"x_min":49,"x_max":329,"o":"m 329 96 l 313 119 l 271 85 l 232 119 l 232 549 l 279 592 l 164 686 l 49 596 l 97 554 l 97 199 q 53 108 97 124 l 53 94 q 116 49 83 76 q 185 -17 149 21 l 329 96 z "},"\u0019":{"ha":157,"x_min":-165,"x_max":324,"o":"m -165 14 l -122 -8 l 324 858 l 281 881 l -165 14 z "},"\u001a":{"ha":656,"x_min":44,"x_max":644,"o":"m 367 100 l 347 118 l 304 83 q 289 97 297 90 q 271 111 281 104 l 235 138 l 235 585 l 326 585 l 326 658 l 235 658 l 235 829 l 351 799 l 374 907 l 239 939 q 166 880 201 907 q 99 831 131 853 l 99 658 l 44 658 l 44 585 l 99 585 l 99 208 l 99 194 q 54 100 97 124 l 54 83 q 221 -17 142 56 l 367 100 m 644 96 l 628 119 l 586 85 l 547 119 l 547 549 l 594 592 l 479 686 l 364 596 l 413 554 l 413 199 q 368 108 413 124 l 368 94 q 431 49 399 76 q 500 -17 464 21 l 644 96 m 492 806 l 525 803 l 640 960 l 525 964 l 492 806 z "},"\u001b":{"ha":664,"x_min":44,"x_max":690,"o":"m 690 90 l 671 113 l 642 90 l 574 138 l 574 750 q 579 831 574 808 q 619 899 590 874 q 635 912 629 906 q 646 922 642 918 l 639 943 q 485 854 542 918 q 376 922 443 893 l 372 907 l 239 939 q 166 880 201 907 q 99 831 131 853 l 99 658 l 44 658 l 44 585 l 99 585 l 99 208 l 99 194 q 54 100 97 124 l 54 83 q 221 -17 142 56 l 367 100 l 347 118 l 304 83 q 289 97 297 90 q 271 111 281 104 l 235 138 l 235 585 l 326 585 l 326 658 l 235 658 l 235 829 l 351 799 l 372 899 q 428 835 415 876 q 438 747 438 810 l 438 201 q 390 103 438 125 l 390 81 q 558 -17 488 56 l 690 90 z "},"\u001c":{"ha":835,"x_min":11,"x_max":860,"o":"m 404 267 q 268 129 356 188 q 306 185 288 156 q 340 247 325 214 l 404 267 m 65 239 l 86 169 l 254 221 q 122 46 244 136 q 92 24 106 33 q 68 10 79 15 l 85 -17 q 439 82 265 82 q 704 -17 574 82 l 860 128 l 836 153 l 774 94 q 543 182 671 182 q 512 181 528 182 q 481 179 496 181 q 356 151 411 171 q 442 228 404 192 q 507 299 481 264 l 703 358 l 682 428 l 563 392 q 585 525 585 446 q 583 575 585 544 q 575 646 581 606 q 567 768 567 726 q 714 904 567 886 l 699 935 q 513 879 581 935 q 440 703 440 819 q 449 588 440 664 q 456 520 454 549 q 458 472 458 492 q 443 354 458 413 l 371 332 q 385 446 385 382 q 383 503 385 469 q 375 581 381 536 q 367 659 369 625 q 365 715 365 693 q 392 819 365 776 q 464 899 413 856 q 476 908 471 904 q 483 915 481 913 l 471 935 q 346 897 396 897 q 250 918 313 897 q 156 939 189 939 q 54 893 97 936 q 11 792 11 850 q 22 736 11 772 l 47 744 q 46 749 47 747 l 46 753 q 43 769 43 764 q 60 817 43 797 q 104 838 78 838 q 163 825 131 838 q 167 824 165 825 l 171 824 q 238 808 214 808 q 356 828 271 808 l 343 815 q 246 586 246 718 q 247 561 246 578 q 249 536 249 544 q 231 540 236 540 q 194 544 215 544 q 85 481 136 543 l 101 467 q 161 486 129 486 q 264 361 260 486 q 196 385 232 385 q 119 343 157 385 l 133 326 q 171 335 151 335 q 240 292 215 335 l 65 239 z "},"\u001d":{"ha":315,"x_min":-21,"x_max":342,"o":"m -21 338 l 0 268 l 89 296 l 89 201 q 42 103 89 125 l 42 81 q 210 -17 139 56 l 342 90 l 322 113 l 293 90 l 225 138 l 225 338 l 333 371 l 313 440 l 225 414 l 225 750 q 231 831 225 808 q 271 899 242 874 q 287 912 281 906 q 297 922 293 918 l 290 943 q 136 854 193 918 q 28 922 94 893 l 21 900 q 79 836 64 878 q 89 747 89 811 l 89 372 l -21 338 z "},"\u001e":{"ha":706,"x_min":-12,"x_max":706,"o":"m 706 160 l 682 182 l 614 97 q 407 149 513 149 q 106 71 301 149 q 267 239 199 158 q 383 396 336 319 l 599 396 l 619 443 l 413 442 q 438 484 428 465 q 454 515 447 503 l 651 515 l 674 565 l 476 564 q 688 925 585 778 l 669 943 q 413 882 554 882 q 175 942 303 882 l 21 761 l 46 740 l 124 828 q 299 790 208 790 q 596 868 413 790 q 450 713 517 789 q 328 565 383 638 l 128 565 l 106 515 l 297 514 q 275 472 285 490 q 258 443 265 454 l 75 443 l 53 396 l 233 394 q 179 293 206 343 q 125 192 153 243 q -12 8 56 75 l 6 -17 q 281 49 153 49 q 565 -17 431 49 l 706 160 m 594 1192 l 564 1208 l 456 1099 l 253 1208 l 165 1118 l 396 986 l 594 1192 z "},"\u001f":{"ha":385,"x_min":-35,"x_max":393,"o":"m 0 558 l 18 536 l 86 585 l 211 483 l 18 279 l 35 263 q 124 290 88 290 q 196 258 169 290 q 222 179 222 226 q 140 36 222 114 q 132 28 133 33 q 58 -94 58 -37 q 90 -162 58 -135 q 161 -189 121 -189 l 168 -189 q 174 -187 172 -189 q 207 -157 207 -183 q 188 -140 207 -144 l 182 -140 q 159 -144 174 -140 q 136 -149 144 -149 q 90 -99 94 -149 l 90 -94 q 114 -47 93 -67 q 219 24 144 -19 q 325 99 294 67 q 371 221 371 149 q 356 292 371 260 q 315 346 342 324 q 254 381 289 368 q 181 393 219 393 q 171 392 176 392 q 161 392 165 390 l 338 578 l 326 592 q 318 590 324 590 q 310 590 314 588 l 308 589 q 244 621 289 589 q 169 685 208 646 l 0 558 m 393 975 l 363 992 l 254 882 l 51 992 l -35 901 l 194 769 l 393 975 z "}," ":{"ha":486,"x_min":0,"x_max":0,"o":""},"!":{"ha":397,"x_min":83,"x_max":314,"o":"m 97 82 l 196 -17 l 294 82 l 196 181 l 97 82 m 83 749 l 83 747 q 181 225 168 532 l 215 224 q 242 502 218 374 q 314 743 267 631 l 196 861 l 83 749 z "},"\"":{"ha":464,"x_min":96,"x_max":390,"o":"m 128 554 l 164 554 l 194 926 l 96 926 l 128 554 m 324 554 l 360 554 l 390 926 l 292 926 l 324 554 z "},"#":{"ha":861,"x_min":93,"x_max":768,"o":"m 558 313 l 728 313 l 738 383 l 568 383 l 589 531 l 758 531 l 768 601 l 599 601 l 632 843 l 558 843 l 525 601 l 371 601 l 404 843 l 331 843 l 297 601 l 133 601 l 124 531 l 288 531 l 267 383 l 103 383 l 93 313 l 257 313 l 219 50 l 293 50 l 331 313 l 485 313 l 447 50 l 521 50 l 558 313 m 515 531 l 494 383 l 340 383 l 361 531 l 515 531 z "},"$":{"ha":683,"x_min":14,"x_max":638,"o":"m 42 -15 q 214 40 107 40 l 231 40 q 242 39 238 39 q 249 39 246 39 l 285 33 q 318 25 301 31 q 319 10 318 17 l 319 -4 q 321 -21 321 -10 l 321 -36 q 320 -74 321 -56 q 318 -110 319 -92 l 363 -82 l 357 13 q 393 -3 378 4 q 419 -15 408 -10 l 444 -3 q 575 103 519 36 q 638 256 638 179 q 443 482 638 390 q 394 503 415 494 q 357 519 372 513 l 357 728 q 381 722 371 725 q 397 717 390 719 q 482 675 432 703 q 493 671 488 671 l 564 789 q 531 806 544 799 q 507 818 517 813 q 357 872 386 865 l 363 999 l 318 974 l 318 871 q 169 792 260 858 q 94 704 111 733 q 67 590 67 656 q 121 472 67 511 q 200 424 154 446 q 242 404 221 414 q 283 383 263 394 q 288 382 286 382 q 293 381 290 382 q 318 371 311 371 l 318 172 q 307 174 311 172 q 290 175 299 175 q 274 175 282 175 q 14 18 113 175 l 42 -15 m 357 168 l 357 357 q 543 186 543 300 q 518 104 543 147 q 357 168 454 142 m 318 738 l 318 533 q 292 543 307 538 q 263 556 278 549 q 158 669 158 603 q 182 717 158 700 q 263 742 215 742 q 276 742 269 742 q 292 740 285 742 l 318 738 z "},"%":{"ha":718,"x_min":46,"x_max":672,"o":"m 526 -17 q 633 84 594 17 q 672 231 672 151 q 627 354 672 299 q 515 432 582 410 q 369 194 369 329 q 526 -17 369 46 m 578 63 l 578 61 q 475 131 515 82 q 435 242 435 179 q 464 349 435 299 q 607 160 607 301 q 578 63 607 100 m 114 14 l 157 -8 l 604 858 l 561 881 l 114 14 m 203 439 l 203 438 q 310 540 271 474 q 349 686 349 607 q 304 810 349 754 q 193 888 260 865 q 46 650 46 790 q 203 439 46 500 m 254 518 l 254 517 q 154 586 194 538 q 111 699 111 638 q 113 713 111 706 l 113 726 q 142 804 124 775 q 285 615 285 757 q 254 518 285 558 z "},"&":{"ha":1004,"x_min":28,"x_max":976,"o":"m 225 -17 l 508 181 q 608 39 576 68 q 772 -17 668 -17 q 964 115 910 -17 l 942 126 q 814 82 885 78 q 708 133 750 86 q 665 188 685 160 q 631 246 646 215 l 622 261 l 739 342 q 851 290 792 290 q 976 358 929 290 l 964 374 q 926 369 949 369 q 814 432 874 375 l 607 288 l 474 524 l 501 540 q 625 629 588 592 q 686 765 686 693 q 563 944 686 871 l 314 825 q 275 806 290 814 q 253 792 260 797 q 219 735 219 767 q 258 629 219 697 l 343 479 l 28 274 l 225 -17 m 317 83 l 154 321 l 357 453 l 494 208 l 317 83 m 458 554 l 375 700 q 372 706 372 703 q 351 763 351 736 q 417 833 351 808 q 457 842 439 842 q 542 802 510 842 q 578 708 575 763 l 578 700 q 476 564 574 628 q 466 558 471 561 q 458 554 461 556 z "},"'":{"ha":296,"x_min":96,"x_max":194,"o":"m 128 554 l 164 554 l 194 926 l 96 926 l 128 554 z "},"(":{"ha":432,"x_min":46,"x_max":426,"o":"m 313 -219 l 397 -112 q 322 -42 357 -78 q 196 193 236 42 q 168 381 168 297 l 168 403 q 344 879 168 669 q 382 922 361 899 q 426 971 403 944 l 411 989 q 150 693 246 861 q 46 315 46 510 q 114 14 46 151 q 313 -219 182 -126 z "},")":{"ha":432,"x_min":18,"x_max":397,"o":"m 131 990 l 47 882 l 122 811 q 158 769 142 790 q 186 728 175 749 q 275 364 275 572 q 226 97 275 218 q 82 -132 183 -14 q 45 -173 61 -156 q 18 -201 29 -190 l 33 -219 q 296 75 197 -97 q 397 454 397 256 q 329 758 397 618 q 131 990 261 897 z "},"*":{"ha":526,"x_min":56,"x_max":471,"o":"m 264 944 l 203 899 q 244 761 233 833 q 113 836 185 781 l 56 789 l 83 721 q 101 724 90 721 l 128 726 q 140 728 135 728 q 154 728 147 728 q 197 726 178 728 q 231 721 215 724 q 121 629 182 660 l 144 556 l 215 560 q 264 692 229 633 q 306 561 293 640 l 381 556 l 404 622 q 373 650 383 642 q 358 661 363 658 q 324 690 339 676 q 297 719 308 704 q 331 724 313 722 q 369 726 349 726 q 388 726 379 726 q 406 725 396 726 l 440 722 l 471 793 l 410 835 q 382 813 396 824 q 354 792 368 803 q 285 758 324 767 q 322 900 286 818 l 264 944 z "},"+":{"ha":694,"x_min":25,"x_max":669,"o":"m 25 519 l 25 446 l 308 446 l 308 174 l 385 174 l 385 446 l 669 446 l 669 519 l 385 519 l 385 790 l 308 790 l 308 519 l 25 519 z "},",":{"ha":324,"x_min":64,"x_max":261,"o":"m 261 93 l 161 190 l 64 88 q 85 69 74 81 q 106 43 96 57 q 121 15 115 29 q 126 -8 126 1 q 74 -90 126 -44 q 66 -97 68 -94 q 64 -99 64 -99 l 75 -128 q 261 93 222 -75 z "},"-":{"ha":318,"x_min":14,"x_max":303,"o":"m 64 407 l 64 406 q 14 296 38 339 l 253 294 q 303 407 271 346 l 64 407 z "},".":{"ha":324,"x_min":61,"x_max":261,"o":"m 61 82 l 161 -17 l 261 82 l 161 182 l 61 82 z "},"/":{"ha":679,"x_min":0,"x_max":669,"o":"m 0 -178 l 60 -210 l 669 974 l 611 1004 l 0 -178 z "},":":{"ha":324,"x_min":61,"x_max":261,"o":"m 61 82 l 161 -17 l 261 82 l 161 182 l 61 82 m 61 493 l 161 393 l 261 493 l 161 593 l 61 493 z "},";":{"ha":324,"x_min":64,"x_max":263,"o":"m 261 93 l 163 190 l 64 88 q 85 69 74 81 q 106 43 96 57 q 121 15 115 29 q 126 -8 126 1 q 74 -90 126 -44 q 66 -97 68 -94 q 64 -99 64 -99 l 75 -128 q 261 93 222 -75 m 64 493 l 163 393 l 263 493 l 163 593 l 64 493 z "},"<":{"ha":694,"x_min":46,"x_max":647,"o":"m 647 826 l 46 531 l 46 404 l 647 107 l 647 254 l 204 467 l 647 679 l 647 826 z "},"=":{"ha":694,"x_min":25,"x_max":669,"o":"m 25 418 l 25 346 l 669 346 l 669 418 l 25 418 m 25 619 l 25 547 l 669 547 l 669 619 l 25 619 z "},">":{"ha":694,"x_min":47,"x_max":649,"o":"m 47 107 l 649 404 l 649 529 l 47 826 l 49 681 l 490 467 l 47 254 l 47 107 z "},"?":{"ha":443,"x_min":46,"x_max":399,"o":"m 85 81 l 182 -17 l 281 81 l 182 179 l 85 81 m 46 693 l 61 681 q 153 728 113 728 q 226 698 194 728 q 258 626 258 668 q 244 546 258 588 q 219 474 232 510 q 194 403 207 439 q 171 250 171 321 l 171 239 q 172 233 171 236 l 172 229 l 199 228 q 297 478 210 374 q 367 563 367 563 q 399 668 399 611 q 335 806 399 756 q 186 857 279 849 q 144 861 150 858 l 46 693 z "},"@":{"ha":950,"x_min":33,"x_max":914,"o":"m 914 525 l 914 524 q 790 806 914 694 q 499 914 671 914 q 172 781 311 914 q 33 461 33 647 q 164 128 33 267 q 485 -11 294 -11 q 856 167 719 -11 q 896 235 886 206 l 836 231 q 822 208 831 221 q 800 181 813 196 q 489 40 683 40 q 224 142 331 40 q 94 401 117 244 q 90 464 90 432 q 211 743 90 624 q 494 863 335 863 q 757 768 651 863 q 861 517 861 674 q 828 397 861 453 q 704 260 774 307 q 661 239 675 240 q 635 286 635 240 l 635 289 l 635 299 q 636 307 635 304 l 636 510 q 642 594 636 571 q 676 675 647 631 l 661 683 q 611 658 636 658 q 475 701 553 658 q 467 706 469 704 q 461 708 464 707 q 415 678 440 688 q 326 661 374 661 l 315 661 q 303 664 311 661 l 399 492 q 294 285 293 374 q 379 146 297 210 l 526 264 q 592 144 538 186 q 661 175 628 158 q 726 214 694 192 q 914 525 914 340 m 526 426 l 526 293 l 456 233 q 386 354 386 296 q 411 476 386 415 l 526 426 m 526 582 l 526 449 l 421 494 l 339 643 l 526 582 z "},"A":{"ha":874,"x_min":38,"x_max":878,"o":"m 878 110 l 856 133 q 850 128 854 132 q 844 124 846 125 q 804 103 819 103 q 778 122 786 103 q 764 211 764 151 l 764 217 l 764 222 l 742 692 q 740 714 740 707 q 740 719 740 721 l 740 743 q 753 826 740 793 q 825 904 767 865 l 847 919 l 832 942 q 756 897 792 924 q 688 836 719 871 q 668 851 676 844 q 653 861 660 857 q 383 947 518 947 l 378 947 l 371 947 q 139 846 240 942 q 38 622 38 750 q 214 335 38 444 l 114 188 q 90 153 103 169 q 67 118 78 136 q 42 39 42 76 q 43 32 42 35 l 43 25 q 89 -18 53 -18 q 125 10 122 -18 q 121 27 125 17 q 111 48 117 38 q 101 68 106 58 q 96 82 96 78 q 106 103 96 93 q 126 113 115 113 q 185 100 151 113 q 397 -22 283 60 l 631 160 q 635 108 632 131 q 642 67 638 85 q 721 -22 653 17 l 878 110 m 624 307 l 629 199 l 494 94 l 176 229 l 231 307 l 624 307 m 422 636 l 233 364 q 90 607 90 465 q 161 758 90 697 q 351 832 250 832 q 531 790 453 832 l 492 732 q 376 747 428 747 q 224 618 275 747 l 249 606 q 343 661 292 661 q 422 636 376 661 m 603 736 l 618 406 l 299 406 l 557 772 q 603 736 585 754 z "},"B":{"ha":1032,"x_min":10,"x_max":986,"o":"m 778 944 l 778 943 q 569 860 679 919 q 453 747 482 811 q 431 583 431 697 l 431 381 q 422 286 431 326 q 392 215 413 246 q 337 161 371 185 q 253 119 303 138 q 333 226 315 182 q 353 363 353 276 l 353 604 q 399 782 353 717 q 547 893 439 840 q 581 910 578 907 l 558 940 q 410 903 481 903 q 365 907 393 903 q 299 921 338 911 q 186 938 225 938 q 61 882 107 938 q 10 750 21 833 l 42 749 q 118 832 51 832 q 132 831 125 832 q 146 829 139 831 l 174 824 q 188 821 185 821 q 258 808 226 808 q 388 832 313 808 q 261 718 299 776 q 215 554 219 653 q 139 563 156 564 q 15 426 38 557 l 15 425 l 15 424 l 42 417 q 124 474 67 474 q 225 343 225 474 q 75 201 81 331 l 100 200 q 167 261 119 261 q 210 244 192 261 q 228 201 228 226 q 138 61 228 140 q 75 0 92 21 q 46 -79 46 -37 l 46 -89 q 93 -139 51 -139 q 131 -99 131 -139 q 119 -68 131 -87 q 107 -36 107 -49 q 197 44 107 17 q 331 63 257 63 q 585 -18 454 63 q 961 143 729 107 l 961 419 q 986 479 961 464 l 986 499 l 818 579 l 967 689 l 778 944 m 651 131 l 651 240 q 736 256 700 256 q 824 242 774 256 l 824 146 q 754 121 786 135 l 753 121 q 708 103 749 117 l 681 117 q 666 124 674 119 q 651 131 658 128 m 621 658 l 621 139 q 496 160 556 160 q 368 143 444 160 q 408 165 389 154 q 442 186 426 175 q 543 296 517 236 q 568 444 568 351 l 568 697 q 589 807 568 771 q 678 872 613 849 l 849 639 l 651 492 l 651 658 l 621 658 m 651 275 l 651 371 q 736 357 701 357 q 824 372 774 357 l 824 274 q 736 286 783 286 q 700 283 721 286 q 651 275 679 281 m 651 403 l 651 456 l 701 493 l 824 432 l 824 404 q 738 386 786 386 q 651 403 693 386 z "},"C":{"ha":857,"x_min":32,"x_max":857,"o":"m 842 251 l 842 250 q 504 125 688 122 l 504 819 q 708 751 613 767 l 835 869 q 540 944 683 869 l 269 714 l 269 418 q 264 339 269 360 q 218 275 254 300 q 143 519 143 385 q 199 708 143 624 q 335 856 243 776 l 322 869 q 202 790 254 835 q 111 688 150 744 q 32 424 32 568 q 153 117 32 247 q 449 -12 274 -12 q 857 233 700 -12 l 842 251 m 474 836 l 474 125 q 236 249 333 140 q 272 278 256 264 q 301 304 288 293 q 389 415 368 358 q 406 561 406 461 l 406 775 l 474 836 z "},"D":{"ha":1024,"x_min":10,"x_max":958,"o":"m 958 124 l 958 122 q 957 277 958 211 q 953 388 956 343 q 897 686 940 586 q 753 840 849 800 q 539 872 678 872 q 461 871 507 872 q 353 867 415 869 q 168 863 229 863 q 43 926 69 863 l 25 925 q 96 763 25 801 q 279 735 147 735 q 310 736 290 735 q 339 738 331 738 q 363 739 349 739 q 397 739 378 739 q 374 725 385 732 q 353 711 363 718 q 238 576 257 646 q 213 397 213 486 q 150 411 183 411 q 10 311 64 411 l 29 296 q 96 329 63 329 q 162 299 135 329 q 193 228 189 268 l 193 217 q 156 115 193 158 q 29 10 97 49 l 47 -14 q 140 49 96 17 q 225 115 185 81 q 270 157 251 138 q 300 192 289 176 q 346 390 346 256 l 346 546 q 472 743 346 713 q 428 536 428 665 l 428 357 q 383 193 428 258 q 256 79 344 135 q 235 67 243 72 q 224 61 226 63 l 86 -21 l 65 -33 l 83 -60 q 436 31 249 31 q 756 -17 589 31 l 958 124 m 564 154 l 564 264 q 669 307 617 299 q 679 308 674 308 l 688 308 q 818 261 753 308 q 822 106 822 203 q 564 154 717 138 m 533 747 l 533 153 q 371 133 440 151 q 461 376 461 208 l 461 535 q 513 746 461 678 l 515 746 q 518 747 517 746 l 529 747 q 531 746 529 746 q 533 747 532 746 m 564 299 l 564 464 q 682 425 624 425 q 807 464 735 425 q 814 383 811 424 q 818 300 817 342 q 686 339 754 339 q 564 299 638 339 m 564 503 l 564 746 q 742 682 690 736 q 804 501 793 631 q 685 460 743 460 q 564 503 624 460 z "},"E":{"ha":881,"x_min":33,"x_max":863,"o":"m 507 539 l 732 532 l 806 660 l 646 664 l 842 861 l 833 881 q 829 879 831 881 l 824 879 l 814 879 q 689 896 749 879 q 546 954 601 919 l 274 738 l 274 415 q 273 388 274 400 q 271 365 272 375 q 222 290 264 328 q 146 551 146 404 q 344 871 146 731 l 332 892 q 115 715 185 813 q 33 451 33 604 q 160 129 33 261 q 474 -3 288 -3 q 700 64 593 -3 q 863 239 797 128 l 853 250 q 507 131 686 128 l 507 539 m 478 850 l 478 132 q 240 268 331 154 q 354 365 350 361 q 406 507 406 422 l 406 790 l 478 850 m 507 565 l 507 833 q 704 764 597 781 l 507 565 z "},"F":{"ha":865,"x_min":-64,"x_max":903,"o":"m 800 660 l 624 660 l 624 803 q 740 771 696 771 q 856 821 811 771 q 903 940 896 865 l 882 943 q 782 875 839 875 q 643 933 724 875 q 635 939 639 936 q 629 943 632 942 q 339 774 547 808 q 289 768 311 768 l 289 658 q 133 629 183 657 q 35 506 76 597 q 33 501 33 503 q 32 497 33 500 l 28 490 l 46 474 q 157 546 93 528 q 289 563 204 560 l 289 67 l 289 50 q 285 6 288 22 q 280 -22 283 -11 q 270 -39 276 -32 q 254 -51 264 -46 q 208 -28 231 -40 q 164 -4 186 -15 q 63 18 114 18 q -12 -17 17 18 q -58 -111 -42 -51 l -64 -131 l -36 -139 q -15 -101 -19 -106 q 21 -82 0 -82 q 94 -103 53 -82 q 129 -121 113 -112 q 164 -139 146 -129 l 368 -49 q 575 75 522 18 q 624 236 624 128 l 624 563 l 761 563 l 800 660 m 497 776 l 497 229 q 311 -37 497 65 q 335 -8 325 -22 q 356 18 346 6 q 417 272 417 104 l 417 747 q 497 776 463 760 z "},"G":{"ha":961,"x_min":33,"x_max":929,"o":"m 876 843 l 867 858 q 796 851 829 850 q 517 943 679 857 q 411 858 464 900 q 306 775 358 817 q 197 677 243 725 q 115 583 150 629 q 33 329 33 474 q 142 85 33 182 q 397 -12 249 -12 q 753 103 592 -12 q 929 419 929 229 q 851 600 929 531 q 667 676 782 664 l 876 843 m 499 524 l 499 46 q 258 165 353 54 q 317 210 292 192 q 358 242 342 229 q 376 258 369 251 q 389 269 383 264 q 418 374 418 299 l 418 476 q 465 505 444 493 q 499 524 485 517 m 529 47 l 529 181 q 663 222 593 222 q 774 192 711 222 q 671 86 742 126 q 529 47 604 49 m 282 708 l 282 349 q 238 190 282 242 q 163 424 163 304 q 282 708 163 582 m 529 221 l 529 349 q 678 307 610 307 q 819 349 749 307 q 810 284 818 317 q 789 219 803 251 q 661 254 721 254 q 529 221 596 254 m 529 386 l 529 533 q 624 551 579 551 q 749 504 696 551 q 817 385 803 457 q 665 338 749 335 q 529 386 594 339 m 418 524 l 418 831 q 692 740 522 783 l 418 524 z "},"H":{"ha":1032,"x_min":8,"x_max":976,"o":"m 738 175 l 713 193 q 618 129 667 129 q 569 131 599 129 q 500 135 540 132 q 432 140 461 138 q 383 142 403 142 q 704 306 547 306 q 843 276 765 306 q 801 142 843 210 q 768 94 790 122 q 714 26 746 65 q 651 -104 651 -49 q 674 -158 651 -135 q 726 -181 696 -181 l 732 -181 q 739 -179 736 -181 q 785 -135 785 -174 q 749 -99 785 -99 q 746 -100 747 -100 l 742 -100 q 711 -108 726 -108 q 692 -85 692 -106 q 701 -61 692 -75 q 725 -33 711 -47 q 753 -10 747 -15 q 900 115 878 90 q 965 240 951 168 q 976 383 976 292 q 957 565 976 500 q 853 713 931 647 q 818 740 833 728 q 793 758 803 751 l 563 565 l 563 742 q 564 758 563 751 q 582 821 568 803 q 653 878 608 853 q 682 891 661 882 q 738 915 703 900 l 728 943 q 540 865 632 918 q 447 757 468 822 q 433 611 433 717 l 433 364 q 405 230 433 282 q 307 132 376 178 q 294 123 300 126 q 283 117 288 119 q 313 176 300 151 q 333 218 325 201 q 350 347 350 261 l 350 676 q 382 804 350 756 q 485 886 411 846 q 538 915 528 908 l 526 943 q 368 899 433 899 q 275 915 335 899 q 182 931 213 932 q 65 875 113 928 q 8 756 24 829 l 33 747 q 129 831 58 831 q 156 828 140 831 q 194 819 172 825 q 263 808 242 808 q 344 821 300 808 q 243 699 274 769 q 215 540 217 636 q 96 517 140 540 q 25 422 47 489 l 46 413 q 138 463 81 463 q 214 417 186 463 q 236 324 236 381 q 113 199 126 321 l 133 193 q 190 244 158 244 q 236 189 236 244 q 150 47 236 126 q 113 12 128 26 q 90 -12 97 -3 q 63 -90 63 -49 l 63 -100 q 108 -150 68 -150 q 142 -110 142 -150 q 138 -94 139 -99 l 131 -82 q 129 -79 129 -81 q 128 -78 129 -79 q 118 -46 118 -62 q 156 10 121 -8 q 331 50 229 50 q 600 -17 451 50 l 738 175 m 563 307 l 563 458 q 703 431 638 431 q 843 458 783 431 q 843 450 843 456 q 844 439 843 446 l 844 421 l 844 344 l 844 325 q 843 313 843 318 q 843 306 843 308 q 706 332 765 332 q 575 308 654 332 q 569 307 571 308 l 563 307 m 563 493 l 563 528 l 722 658 q 847 496 836 585 q 706 461 788 461 q 563 493 629 461 z "},"I":{"ha":719,"x_min":-18,"x_max":725,"o":"m -1 -12 l 0 -12 q 100 58 39 58 q 253 21 153 58 q 410 -17 354 -17 q 581 63 515 -17 q 644 246 633 131 q 647 273 646 261 q 647 292 647 285 q 641 394 647 335 q 624 531 635 453 q 599 768 599 694 q 704 906 599 879 l 725 911 l 711 933 q 489 636 489 900 q 495 536 489 596 q 513 396 501 476 q 530 255 524 315 q 536 154 536 194 q 508 64 536 100 q 428 28 481 28 q 318 89 388 28 q 285 118 299 107 q 261 135 271 129 q 383 172 343 143 q 431 286 431 207 q 426 364 431 318 q 415 472 422 410 q 404 581 408 535 q 400 660 400 628 q 522 924 400 818 l 510 938 q 410 914 460 914 q 314 928 375 914 q 217 943 249 943 q 108 899 153 943 q 56 789 63 856 l 71 785 q 169 856 104 856 q 185 855 176 856 q 200 853 193 854 q 259 842 236 846 q 289 839 282 839 q 404 867 324 839 q 414 871 413 869 q 278 560 285 746 q 260 563 265 563 q 249 565 254 564 l 238 565 q 83 456 143 565 l 96 446 q 190 486 140 486 q 272 446 244 486 q 318 286 318 376 q 282 182 318 201 q 164 154 242 161 q -18 -7 28 142 l -1 -12 z "},"J":{"ha":768,"x_min":-17,"x_max":815,"o":"m 3 -171 q 79 -121 44 -121 q 164 -137 107 -121 q 251 -156 218 -156 q 561 7 417 -156 q 682 367 682 142 q 681 424 682 390 q 676 504 679 458 q 672 643 672 597 q 710 793 672 728 q 770 876 744 842 q 815 933 796 911 l 796 956 q 611 888 714 888 q 429 913 550 888 q 324 933 369 926 q 247 939 279 939 q 96 883 164 939 q 26 747 26 826 l 26 739 q 28 731 26 732 q 107 646 42 646 q 154 665 135 646 q 174 711 174 683 q 158 752 174 736 q 117 768 142 768 q 99 760 110 767 q 90 756 99 760 q 75 751 81 751 q 64 769 64 754 q 104 821 68 801 q 172 836 138 836 q 276 819 215 836 q 296 815 290 815 q 422 793 375 793 q 554 814 472 793 q 410 692 454 754 q 353 513 354 615 q 254 549 300 549 q 117 489 176 549 l 129 467 q 153 478 140 474 q 181 486 165 483 q 189 488 185 486 l 199 488 q 294 444 260 488 q 326 388 317 417 q 343 326 332 374 q 326 335 335 332 q 239 360 278 360 q 117 315 174 360 l 129 294 l 143 297 q 168 301 157 300 q 186 303 179 303 q 322 242 261 303 q 394 107 375 188 q 399 80 397 92 q 400 58 401 68 q 366 -10 397 18 q 293 -37 335 -37 q 256 -33 274 -37 q 143 -12 161 -12 q -17 -161 25 -12 l 3 -171 m 343 -87 q 444 26 422 -39 q 463 182 463 72 q 462 231 463 201 q 460 300 461 261 q 458 369 458 340 q 458 419 458 400 q 510 686 458 585 q 706 869 565 800 q 571 667 607 771 q 542 421 542 581 q 542 376 542 403 q 543 315 542 351 q 545 255 544 281 q 546 211 546 229 q 343 -87 546 -46 z "},"K":{"ha":979,"x_min":-8,"x_max":992,"o":"m 992 119 l 972 142 l 961 129 q 921 106 940 106 q 886 138 896 122 q 872 163 876 154 q 635 447 754 374 l 882 617 l 739 793 l 501 603 q 610 925 515 779 l 586 943 q 468 476 468 794 l 468 457 q 469 436 468 443 l 469 396 q 443 254 469 303 q 338 157 414 200 q 282 131 308 139 l 149 67 l 289 182 q 372 269 343 225 q 408 461 408 322 q 407 475 407 468 q 407 489 407 482 l 407 515 q 409 585 407 551 q 414 651 411 619 q 507 936 428 788 l 494 946 q 388 908 446 908 q 306 921 349 908 q 292 924 300 921 q 194 939 224 939 q 58 878 115 939 q -8 742 7 824 l 18 732 q 146 829 56 829 q 166 828 151 829 q 204 824 181 826 q 238 819 224 821 q 263 818 251 818 q 425 869 324 818 l 386 833 q 367 814 375 822 q 353 799 358 806 q 271 579 271 708 q 171 615 222 615 q 67 526 96 607 l 88 521 q 147 547 115 547 q 240 505 207 547 q 278 400 274 463 l 278 392 l 278 372 q 276 368 276 371 l 276 363 q 186 401 236 403 q 88 321 117 399 l 110 310 q 158 332 132 332 q 208 309 188 332 q 229 257 229 286 q 163 132 229 203 q 22 13 96 61 l 43 -17 q 303 47 185 47 q 571 -17 438 47 l 724 153 q 853 -17 782 35 l 992 119 m 708 182 l 631 93 q 382 147 522 147 q 470 239 443 190 q 501 363 497 288 q 708 182 621 329 m 501 393 l 501 564 l 657 688 l 756 567 l 501 393 z "},"L":{"ha":835,"x_min":11,"x_max":860,"o":"m 860 128 l 836 153 l 774 94 q 543 182 671 182 q 512 181 528 182 q 481 179 496 181 q 356 151 411 171 q 453 236 414 196 q 517 311 493 276 q 585 525 585 406 q 583 575 585 544 q 575 646 581 606 q 567 768 567 726 q 714 904 567 886 l 699 935 q 513 879 581 935 q 440 703 440 819 q 449 588 440 664 q 456 520 454 549 q 458 472 458 492 q 268 129 458 258 q 385 446 385 279 q 383 503 385 469 q 375 581 381 536 q 367 659 369 625 q 365 715 365 693 q 392 819 365 776 q 464 899 413 856 q 476 908 471 904 q 483 915 481 913 l 471 935 q 346 897 396 897 q 250 918 313 897 q 156 939 189 939 q 54 893 97 936 q 11 792 11 850 q 22 736 11 772 l 47 744 q 46 749 47 747 l 46 753 q 43 769 43 764 q 60 817 43 797 q 104 838 78 838 q 163 825 131 838 q 167 824 165 825 l 171 824 q 238 808 214 808 q 356 828 271 808 l 343 815 q 246 586 246 718 q 247 561 246 578 q 249 536 249 544 q 231 540 236 540 q 194 544 215 544 q 85 481 136 543 l 101 467 q 161 486 129 486 q 264 361 260 486 q 196 385 232 385 q 119 343 157 385 l 133 326 q 171 335 151 335 q 230 307 207 335 q 256 242 253 279 l 256 235 q 122 46 251 139 q 92 24 106 33 q 68 10 79 15 l 85 -17 q 439 82 265 82 q 704 -17 574 82 l 860 128 z "},"M":{"ha":1192,"x_min":-17,"x_max":1193,"o":"m 1193 104 l 1169 129 l 1131 97 q 1088 176 1088 119 l 1088 676 q 1114 811 1088 763 q 1137 842 1126 829 q 1154 865 1147 856 l 1131 885 q 1116 871 1124 878 q 1101 857 1108 864 l 1074 829 l 931 944 l 696 774 q 690 825 694 803 q 678 863 685 847 q 615 928 661 899 q 604 933 608 931 q 597 938 600 936 q 520 897 553 914 q 465 868 488 879 q 362 806 406 836 q 289 749 318 776 q 185 568 203 669 q 176 461 176 519 q 7 351 53 442 l 31 332 q 104 374 64 374 q 183 335 153 374 q 239 178 239 265 q 233 119 239 143 q 213 81 226 96 q 175 56 199 65 q 118 40 151 46 q 115 39 117 39 l 111 39 q 10 -11 38 25 q -17 -126 -15 -46 l 11 -126 q 76 -67 24 -67 q 92 -67 83 -67 q 107 -68 100 -67 l 135 -71 q 164 -72 144 -71 q 193 -74 183 -74 q 389 160 389 -74 l 389 424 l 563 424 l 563 233 q 518 133 563 161 l 518 115 q 664 -18 611 44 l 889 179 l 867 200 l 819 160 l 819 421 l 896 522 l 819 522 l 819 829 l 853 853 l 946 778 l 946 188 q 950 100 946 126 q 988 24 958 54 q 1010 3 997 13 l 1039 -18 l 1193 104 m 210 36 l 210 35 q 292 121 271 60 q 307 243 307 163 l 307 526 q 311 649 307 579 q 381 774 315 725 q 360 618 360 721 l 360 207 q 347 88 360 118 q 253 32 326 32 q 210 36 226 32 m 790 424 l 790 139 q 751 119 774 119 q 700 200 708 119 q 699 215 699 204 l 699 424 l 790 424 m 563 522 l 446 522 l 389 443 l 389 619 q 394 721 389 694 q 443 807 404 771 q 468 828 454 818 q 500 849 482 838 q 531 821 519 833 q 550 794 543 808 q 560 763 557 781 q 563 719 563 744 l 563 522 m 699 522 l 699 742 l 790 808 l 790 522 l 699 522 z "},"N":{"ha":1096,"x_min":-119,"x_max":1096,"o":"m 1096 186 l 1064 199 l 1018 121 l 999 124 q 980 126 989 125 q 961 126 971 126 l 942 126 q 778 103 849 126 q 788 117 785 113 q 793 125 792 122 l 890 256 q 986 422 944 328 q 1018 517 1008 469 q 1026 611 1028 564 q 918 832 1022 749 q 689 944 814 915 l 271 740 l 271 606 q 154 640 206 640 q 36 581 83 640 l 50 563 q 121 585 86 585 q 228 536 188 585 q 271 424 264 493 q 154 471 215 471 q 36 414 90 471 l 50 393 q 124 411 82 411 q 285 276 251 411 q 193 304 226 304 q 83 239 132 304 l 100 221 q 175 249 143 249 q 226 239 201 249 q 268 212 250 229 q 297 171 286 194 q 308 121 308 147 q 284 51 308 78 q 218 24 260 24 q 144 36 194 24 q 87 44 108 42 q 58 47 65 46 l 56 47 l 50 47 q -119 -62 -44 47 l -101 -78 q 6 -46 -40 -46 q 119 -67 44 -46 q 235 -89 192 -89 q 449 18 374 -89 q 496 219 496 86 l 496 350 q 654 403 560 390 q 665 404 658 404 l 675 404 q 750 394 717 404 q 857 344 814 375 q 815 258 843 311 q 743 132 786 206 q 636 -83 665 -3 l 668 -94 q 851 15 728 15 q 981 -14 914 15 l 1096 186 m 468 789 l 468 247 l 468 246 l 468 243 q 444 82 468 133 q 314 3 411 8 q 393 104 374 38 q 406 238 406 146 l 406 761 l 436 775 q 451 782 443 778 q 468 789 460 786 m 496 389 l 496 560 q 679 510 596 510 q 897 582 788 510 q 898 570 897 576 q 900 557 899 564 q 901 544 900 550 l 901 532 q 868 374 901 463 q 669 435 778 435 q 496 389 601 435 m 496 600 l 496 797 q 511 800 507 800 q 601 813 554 813 q 778 760 701 813 q 889 615 856 708 q 679 542 778 542 q 496 600 583 542 z "},"O":{"ha":1015,"x_min":32,"x_max":982,"o":"m 93 674 l 93 672 q 32 399 32 518 q 144 107 32 225 q 429 -12 260 -12 q 750 122 589 -12 q 958 406 901 249 q 982 526 982 472 q 854 804 982 689 q 571 939 744 903 q 544 944 549 944 l 93 674 m 474 821 l 474 90 q 247 201 343 106 q 364 310 340 274 q 403 467 403 365 l 403 824 q 438 823 421 824 q 474 821 456 822 m 504 92 l 504 344 q 657 417 567 417 q 821 335 751 417 q 701 161 785 228 q 504 92 611 90 m 274 744 l 274 379 q 268 296 274 317 q 226 225 257 256 q 139 478 139 347 q 274 744 139 643 m 504 388 l 504 596 q 664 535 582 535 q 829 596 744 535 q 849 493 849 535 l 849 472 q 847 460 847 465 q 847 451 847 454 q 840 404 844 425 q 832 368 836 383 q 657 447 746 447 q 504 388 576 447 m 504 628 l 504 817 q 818 626 735 783 q 663 563 750 563 q 504 628 581 563 z "},"P":{"ha":986,"x_min":-32,"x_max":922,"o":"m 261 -182 l 493 -182 l 493 57 q 722 -12 614 43 l 922 165 l 922 590 q 843 800 922 710 q 660 940 788 863 l 493 826 l 493 926 l 464 926 l 464 807 l 397 758 q 348 890 396 842 q 217 939 300 939 q 35 849 118 939 l 54 825 q 149 858 106 858 q 229 818 206 858 q 261 667 261 761 l 28 504 l 35 482 q 181 407 111 469 q 261 183 261 335 q -32 1 113 158 l -17 -15 q 261 69 101 57 l 261 -182 m 397 -151 l 397 725 l 464 772 l 464 -151 l 397 -151 m 493 193 l 493 318 q 640 368 578 368 q 783 319 701 368 l 783 110 q 493 193 626 181 m 493 353 l 493 542 q 629 496 574 496 q 783 547 699 496 l 783 357 q 642 397 707 397 q 493 353 575 397 m 135 543 l 261 629 l 261 447 q 135 543 218 499 m 493 581 l 493 792 l 564 838 l 586 826 q 721 739 679 779 q 785 597 785 679 l 785 590 q 783 588 783 589 l 783 583 q 656 529 725 538 q 643 528 649 529 l 631 528 q 493 581 558 528 z "},"Q":{"ha":1049,"x_min":32,"x_max":1036,"o":"m 108 676 l 108 675 q 32 392 32 517 q 111 138 32 235 q 173 76 138 104 q 249 28 208 49 q 333 -2 289 8 q 419 -12 376 -12 q 532 0 479 -12 q 710 89 624 26 l 906 -54 l 1036 68 l 1011 93 l 971 56 l 818 169 l 829 181 q 1017 528 1017 368 q 888 806 1017 685 q 569 942 772 913 q 556 944 567 942 l 108 676 m 493 810 l 493 100 q 446 108 468 103 q 404 119 424 113 q 267 199 339 138 q 381 313 354 269 q 419 471 419 372 l 419 811 l 439 811 q 457 810 450 811 q 474 809 465 810 q 493 810 483 808 m 524 101 l 524 346 q 679 419 585 419 q 851 340 778 419 q 722 171 806 235 q 524 101 629 100 m 283 735 l 283 358 q 242 221 283 272 q 149 479 149 326 q 283 735 149 633 m 524 392 l 524 592 q 685 538 611 538 q 857 604 767 538 q 879 490 879 554 q 861 374 879 424 q 682 451 776 451 q 524 392 597 451 m 524 629 l 524 806 q 580 797 553 803 q 632 783 607 790 q 843 632 793 733 q 685 568 778 568 q 524 629 614 568 z "},"R":{"ha":972,"x_min":-17,"x_max":1000,"o":"m 692 132 l 671 154 l 607 93 q 583 110 596 103 q 556 124 569 117 l 500 149 l 500 411 l 526 428 q 747 167 689 393 q 825 8 774 61 q 844 -6 836 0 q 857 -17 851 -12 l 1000 117 l 979 140 l 928 93 q 871 178 894 121 q 856 226 864 201 q 840 276 847 251 q 651 514 786 446 l 857 651 l 646 939 l 397 769 q 208 939 389 939 q 31 850 107 939 l 44 833 q 139 864 92 864 q 264 714 253 864 q 265 696 265 708 l 265 679 l 25 511 l 25 490 q 229 338 156 447 q 242 321 235 331 q 271 178 271 264 q -17 8 104 157 l -4 -3 q 232 64 101 56 l 244 64 l 257 64 q 535 -17 415 64 l 692 132 m 397 175 l 397 732 l 469 782 l 469 157 q 426 168 443 164 q 397 175 408 172 m 265 639 l 265 436 q 125 542 217 490 l 265 639 m 500 447 l 500 801 l 557 840 l 725 601 l 500 447 z "},"S":{"ha":1013,"x_min":13,"x_max":989,"o":"m 399 944 l 399 943 q 157 610 157 765 q 40 463 40 561 q 93 358 40 392 q 236 311 160 313 q 264 311 250 310 l 358 311 l 310 225 q 197 233 253 233 q 76 200 128 233 q 14 99 13 163 q 147 -14 15 3 q 163 -15 156 -14 l 179 -15 q 461 68 296 -15 q 487 55 472 61 q 518 42 501 49 q 613 6 551 21 q 858 158 775 86 q 989 401 989 271 q 858 599 989 535 q 642 639 775 639 l 596 639 q 590 638 594 638 q 585 639 586 638 l 736 906 l 711 922 l 669 849 l 399 944 m 419 82 l 419 81 q 158 13 288 13 q 149 14 153 13 l 139 14 q 76 71 76 24 q 97 110 76 97 q 175 129 129 129 q 419 82 279 129 m 465 435 l 515 521 q 588 525 551 524 q 661 526 625 526 q 818 482 753 526 q 894 343 894 431 q 733 106 894 218 q 725 100 729 104 q 701 110 714 106 q 676 121 689 115 l 626 140 l 660 158 q 696 179 681 171 q 821 335 821 254 q 704 443 821 418 q 644 449 681 449 q 585 444 628 449 q 569 443 579 444 q 554 442 560 442 q 506 435 528 436 q 465 435 483 433 m 343 221 l 396 311 q 418 315 410 311 l 561 331 q 631 335 600 335 q 679 322 658 335 q 706 281 706 306 q 682 229 706 253 q 622 185 647 203 q 579 156 597 167 q 521 174 550 165 q 463 190 492 183 l 343 221 m 479 518 l 429 429 l 388 426 q 346 424 367 425 q 303 424 325 424 l 261 424 q 171 444 210 424 q 124 518 124 471 q 161 583 124 556 q 222 518 181 533 q 315 507 256 507 q 397 510 356 507 q 479 518 438 513 m 610 746 l 546 635 q 488 628 513 631 q 446 624 463 625 l 411 624 q 392 622 400 622 q 378 622 383 622 l 369 622 l 361 622 q 243 717 243 628 q 276 790 243 760 q 353 825 308 821 l 364 825 q 610 746 457 825 z "},"T":{"ha":906,"x_min":-36,"x_max":899,"o":"m 618 119 l 618 768 q 644 767 626 768 q 671 765 663 765 q 827 815 764 765 q 899 957 890 865 l 876 964 q 732 888 833 888 q 524 913 661 888 q 403 933 454 926 q 315 939 351 939 q 87 865 176 939 q -36 653 -3 790 l -14 643 q 242 821 64 821 l 257 821 q 272 819 264 819 q 287 817 279 818 q 301 817 294 817 q 44 397 44 638 q 167 106 44 222 q 464 -10 290 -10 q 740 82 617 -10 q 899 324 863 175 l 876 328 q 618 119 782 158 m 588 774 l 588 113 q 579 111 583 111 q 572 110 575 111 q 557 108 565 108 q 540 107 549 107 l 524 107 q 325 168 419 107 q 396 226 372 207 q 421 246 419 244 q 496 442 496 314 l 496 790 q 516 788 504 790 q 542 783 528 786 q 567 778 556 781 q 588 774 579 775 m 357 817 l 357 346 q 296 190 357 235 q 168 468 168 306 q 215 669 168 576 q 357 817 267 772 z "},"U":{"ha":1022,"x_min":0,"x_max":1017,"o":"m 1017 86 l 999 111 q 961 99 979 99 q 933 114 942 99 q 919 186 919 138 l 919 675 q 965 847 919 790 q 988 872 978 861 q 1004 889 997 882 l 979 910 l 914 842 l 783 939 l 629 778 l 650 757 l 722 831 l 783 782 l 783 585 q 694 557 749 563 l 675 557 q 565 601 611 564 l 565 960 l 546 958 q 506 926 529 938 q 415 908 468 908 q 285 938 374 908 q 157 965 193 967 q 44 903 79 961 q 0 714 0 825 l 0 704 q 1 694 0 697 l 29 693 q 138 847 29 847 q 158 847 149 847 q 179 846 168 847 q 263 838 232 840 q 304 835 293 835 l 326 835 q 356 838 344 838 q 371 840 367 839 q 142 647 210 733 q 49 369 49 529 q 149 103 49 213 q 404 -12 251 -12 q 564 11 493 -12 q 781 147 665 46 q 803 43 782 83 q 878 -29 825 0 l 1017 86 m 535 883 l 535 90 l 517 90 q 508 89 514 89 l 490 89 l 482 89 q 307 147 378 94 q 429 246 375 188 q 478 389 478 299 l 478 731 q 535 883 478 822 m 565 96 l 565 375 q 667 407 617 407 q 783 374 718 407 l 783 197 q 565 96 668 107 m 278 175 l 278 174 q 181 435 181 279 q 264 689 181 574 q 471 861 342 793 q 413 786 435 815 q 383 746 390 757 q 343 606 343 678 l 343 358 q 278 175 343 224 m 565 413 l 565 563 q 654 529 607 535 q 665 528 658 528 l 674 528 q 783 551 739 528 l 783 407 q 667 438 726 438 q 565 413 625 438 z "},"V":{"ha":869,"x_min":-17,"x_max":838,"o":"m 350 747 l 350 746 q 129 958 279 958 q 43 915 74 958 q 8 846 24 888 q -17 747 -7 804 l 6 739 q 10 756 8 749 q 13 768 11 763 q 85 839 35 839 q 188 768 151 839 q 256 421 256 633 q 153 476 210 476 q 46 399 86 476 l 63 383 q 124 407 93 407 q 199 372 168 407 q 238 297 228 339 q 242 260 242 269 q 161 28 242 171 q 153 15 156 21 q 147 7 150 10 l 169 -17 q 311 32 243 32 l 319 32 q 453 -17 379 32 q 607 135 542 65 q 713 263 672 204 q 838 617 838 439 q 736 944 838 764 l 350 747 m 356 329 l 356 328 q 469 350 418 350 q 643 304 565 350 q 529 113 588 186 q 425 132 468 132 q 206 42 332 132 q 218 63 214 56 l 292 182 q 356 329 326 236 m 386 536 l 386 535 q 490 514 429 519 q 497 514 493 514 q 508 513 501 514 l 526 513 q 704 550 622 513 q 691 443 703 497 q 657 336 679 389 q 472 382 563 382 q 365 365 429 382 q 386 536 386 442 m 360 717 l 622 851 q 704 582 697 735 q 532 543 621 543 q 385 567 475 543 q 380 601 382 586 q 376 626 378 617 q 360 717 371 681 z "},"W":{"ha":1200,"x_min":-17,"x_max":1168,"o":"m 329 738 l 329 736 q 261 875 308 818 q 131 946 204 946 q -10 792 21 946 q -14 772 -12 781 q -17 756 -15 763 l 13 750 q 29 815 13 785 q 78 844 46 844 q 129 822 107 844 q 222 532 210 738 l 225 489 q 226 467 226 478 q 226 446 226 457 q 128 493 183 493 q 28 421 69 493 l 46 401 q 96 421 74 421 q 178 375 144 421 q 208 283 208 336 q 117 26 208 181 q 108 13 111 19 q 103 4 106 7 l 118 -17 q 329 50 229 53 q 454 -17 388 47 q 492 1 482 -1 q 650 50 578 50 q 779 -17 710 50 q 1168 590 1168 300 q 1039 950 1168 750 l 740 742 q 629 953 699 851 l 329 738 m 313 310 l 313 308 q 446 344 388 344 q 586 294 507 344 q 550 212 569 250 q 508 139 531 174 q 426 147 447 147 q 192 68 335 147 q 183 64 186 65 q 178 61 181 63 q 251 186 217 125 q 313 310 285 247 m 707 318 l 707 317 q 822 346 757 346 q 971 299 897 346 q 958 275 960 276 q 875 142 914 189 q 778 158 818 158 q 525 76 676 158 q 515 72 517 72 q 510 69 513 69 q 506 67 507 68 q 707 318 642 203 m 356 539 l 356 542 q 471 506 401 513 l 492 506 q 633 549 553 506 l 633 540 q 635 533 633 535 l 635 517 q 599 324 635 435 q 443 375 504 375 l 429 375 q 414 374 422 374 q 328 351 367 367 q 357 526 357 449 l 357 533 q 356 539 356 535 m 772 543 l 772 542 q 897 515 835 515 q 1022 542 965 515 q 1024 532 1024 538 l 1024 522 q 1023 501 1024 513 q 1021 479 1022 490 q 988 338 1008 396 q 983 328 985 329 q 825 375 897 375 q 728 360 782 375 q 772 543 772 442 m 336 704 l 526 840 q 614 657 585 767 q 631 585 626 608 q 486 539 568 539 q 356 574 424 539 q 336 704 356 639 m 750 715 l 932 838 q 1022 574 1004 743 q 899 544 944 544 q 772 574 836 544 q 750 715 772 644 z "},"X":{"ha":765,"x_min":-31,"x_max":761,"o":"m 761 124 l 735 150 l 725 140 q 714 131 718 133 q 660 99 686 99 q 632 115 642 99 q 607 163 617 143 q 592 194 597 182 l 489 438 l 653 438 l 701 543 l 432 543 l 549 804 q 708 739 601 775 l 761 849 q 576 953 653 897 l 419 603 l 347 776 q 282 896 313 861 q 161 949 236 949 q -31 810 40 949 l -10 793 q 101 846 43 846 q 176 813 151 846 q 201 771 192 789 q 217 739 211 753 q 228 714 222 731 q 229 713 228 713 l 229 711 l 300 543 l 139 543 l 90 438 l 347 438 l 214 138 q 113 177 156 160 q 43 207 71 194 l -10 83 q 182 -17 96 47 l 361 383 l 460 150 q 511 50 492 75 q 603 -17 542 8 l 761 124 z "},"Y":{"ha":932,"x_min":-1,"x_max":900,"o":"m 42 868 l 42 867 q 92 882 68 882 q 218 732 201 882 q 220 703 219 719 q 221 665 221 686 l 221 614 q 100 657 161 657 q 29 638 71 657 l 35 614 l 40 614 q 46 615 44 614 l 56 615 q 183 553 139 615 q 221 410 219 499 l 221 406 l 221 401 q 85 454 151 454 q 72 454 78 454 q 60 453 67 454 l 35 450 l 35 431 q 176 347 128 422 q 221 183 218 285 l 221 182 l 221 179 q 68 132 129 179 q 0 -6 -1 79 q 68 -142 0 -87 q 217 -189 135 -190 q 406 -122 288 -186 q 567 -58 524 -58 l 572 -58 q 576 -60 575 -58 q 596 -76 596 -62 q 590 -90 596 -89 q 572 -140 572 -118 q 589 -185 572 -167 q 632 -203 606 -203 q 693 -135 693 -203 q 632 -42 693 -78 q 518 -12 582 -12 q 336 -58 454 -12 q 161 -104 217 -104 q 70 -72 108 -104 q 32 11 32 -39 q 75 100 32 67 q 219 149 140 149 q 278 148 243 149 q 363 146 314 147 q 446 144 411 144 q 506 144 482 144 q 900 583 900 144 l 900 588 l 900 592 q 826 804 899 714 q 629 900 749 900 q 483 864 563 900 q 431 837 464 856 q 350 790 397 818 q 165 943 322 943 q 26 890 92 943 l 42 868 m 350 181 l 350 750 l 413 788 l 413 181 l 350 181 m 443 181 l 443 376 q 581 433 517 433 q 747 368 669 433 q 443 181 685 178 m 443 414 l 443 603 q 596 547 508 547 q 754 610 672 547 q 764 501 764 575 q 754 403 764 456 q 585 464 678 464 q 443 414 515 464 m 443 644 l 443 801 q 543 828 497 828 q 675 771 618 828 q 744 643 725 719 q 592 576 679 576 q 443 644 517 576 z "},"Z":{"ha":706,"x_min":-12,"x_max":706,"o":"m 706 160 l 682 182 l 614 97 q 407 149 513 149 q 106 71 301 149 q 267 239 199 158 q 383 396 336 319 l 599 396 l 619 443 l 413 442 q 438 484 428 465 q 454 515 447 503 l 651 515 l 674 565 l 476 564 q 688 925 585 778 l 669 943 q 413 882 554 882 q 175 942 303 882 l 21 761 l 46 740 l 124 828 q 299 790 208 790 q 596 868 413 790 q 450 713 517 789 q 328 565 383 638 l 128 565 l 106 515 l 297 514 q 275 472 285 490 q 258 443 265 454 l 75 443 l 53 396 l 233 394 q 179 293 206 343 q 125 192 153 243 q -12 8 56 75 l 6 -17 q 281 49 153 49 q 565 -17 431 49 l 706 160 z "},"[":{"ha":694,"x_min":265,"x_max":517,"o":"m 517 925 l 265 925 l 265 -224 l 517 -224 l 517 -121 l 382 -121 l 382 822 l 517 822 l 517 925 z "},"\\":{"ha":332,"x_min":40,"x_max":360,"o":"m 221 138 l 221 829 l 338 799 l 360 907 l 225 939 q 152 880 188 907 q 85 831 117 853 l 85 222 l 85 208 l 85 194 q 40 100 83 124 l 40 83 q 207 -17 128 56 l 353 100 l 333 118 l 290 83 q 274 97 282 90 q 257 111 265 104 l 221 138 z "},"]":{"ha":694,"x_min":178,"x_max":429,"o":"m 178 -224 l 429 -224 l 429 925 l 178 925 l 178 824 l 311 824 l 311 -121 l 178 -121 l 178 -224 z "},"^":{"ha":694,"x_min":35,"x_max":660,"o":"m 169 507 l 347 829 l 525 507 l 660 507 l 431 931 l 264 931 l 35 507 l 169 507 z "},"_":{"ha":694,"x_min":0,"x_max":694,"o":"m 0 -89 l 0 -182 l 694 -182 l 694 -89 l 0 -89 z "},"`":{"ha":694,"x_min":214,"x_max":481,"o":"m 481 796 l 335 963 l 214 963 l 263 842 l 481 796 z "},"a":{"ha":567,"x_min":46,"x_max":565,"o":"m 565 99 l 551 115 q 546 113 549 113 l 544 111 l 542 108 q 508 97 517 97 q 474 151 475 101 l 474 163 l 474 438 q 474 474 474 457 q 475 506 474 490 q 524 643 476 571 l 506 654 q 443 624 474 624 q 269 678 374 624 q 261 682 264 681 q 256 685 258 683 q 86 626 186 626 l 71 626 q 68 628 69 626 l 61 628 q 57 629 57 628 l 176 415 l 157 393 q 46 156 46 269 q 153 -17 46 65 l 336 131 q 388 11 344 58 q 405 -5 397 1 q 418 -17 413 -11 l 565 99 m 261 365 l 336 333 l 336 165 l 247 92 q 161 243 161 171 q 178 354 161 285 q 192 396 188 396 l 261 365 m 336 526 l 336 361 l 204 418 l 101 604 l 336 526 z "},"b":{"ha":568,"x_min":26,"x_max":514,"o":"m 50 115 l 50 100 q 307 -17 207 72 q 514 101 381 49 l 514 481 q 508 567 514 533 q 475 632 501 600 q 421 686 464 644 l 224 521 l 224 757 q 236 856 224 822 q 299 931 250 899 l 294 943 q 138 861 201 929 q 35 922 86 901 l 26 904 q 37 894 32 899 q 46 886 42 890 l 61 871 q 88 768 88 832 l 88 210 q 50 115 88 136 m 224 489 l 335 582 q 376 463 376 546 l 376 93 l 224 158 l 224 489 z "},"c":{"ha":426,"x_min":43,"x_max":426,"o":"m 426 111 l 413 129 l 353 82 l 233 136 l 233 558 l 349 494 l 418 596 l 257 685 q 43 550 149 582 l 43 532 q 88 515 79 528 q 97 464 97 501 l 97 181 q 58 76 97 103 l 58 58 q 267 -17 172 47 l 426 111 z "},"d":{"ha":586,"x_min":53,"x_max":549,"o":"m 53 767 l 226 635 q 93 579 172 593 l 93 225 q 53 100 93 132 l 53 83 q 163 61 115 76 q 314 -17 236 36 q 518 94 400 46 l 518 549 q 549 649 518 617 l 542 671 q 472 617 500 656 l 53 926 l 53 767 m 235 167 l 235 575 q 254 589 247 583 q 269 603 261 594 l 382 519 l 382 97 l 235 167 z "},"e":{"ha":494,"x_min":46,"x_max":485,"o":"m 467 119 l 453 139 l 354 69 q 233 132 308 94 l 233 260 l 485 468 l 315 685 q 196 619 263 653 q 46 549 129 585 l 51 533 q 97 481 97 533 l 97 194 l 97 179 q 51 85 94 106 l 51 69 q 265 -17 146 53 l 467 119 m 233 306 l 233 603 l 375 421 l 233 306 z "},"f":{"ha":346,"x_min":44,"x_max":374,"o":"m 367 100 l 347 118 l 304 83 q 288 97 296 90 q 271 111 279 104 l 235 138 l 235 585 l 326 585 l 326 658 l 235 658 l 235 829 l 351 799 l 374 907 l 239 939 q 166 880 201 907 q 99 831 131 853 l 99 658 l 44 658 l 44 585 l 99 585 l 99 208 l 99 194 q 54 100 97 124 l 54 83 q 221 -17 142 56 l 367 100 z "},"g":{"ha":593,"x_min":50,"x_max":593,"o":"m 50 -168 l 63 -182 q 264 -154 190 -154 q 407 -187 324 -154 q 452 -167 433 -176 q 485 -153 471 -158 q 589 -46 589 -101 q 573 9 590 -19 q 535 69 556 38 q 499 137 515 101 q 486 213 483 172 l 486 532 q 593 503 561 510 l 593 649 l 485 590 l 292 683 q 63 600 183 614 l 63 126 l 210 19 l 50 -168 m 171 -65 l 351 147 q 404 13 357 81 q 508 -89 447 -47 l 485 -103 q 300 -53 386 -53 q 171 -65 243 -53 m 197 171 l 197 590 l 351 533 l 351 189 l 282 107 l 197 171 z "},"h":{"ha":574,"x_min":29,"x_max":519,"o":"m 150 -18 l 272 74 l 228 124 l 228 496 l 333 579 q 378 472 378 546 l 378 138 q 339 -39 378 21 q 196 -150 299 -101 q 163 -165 176 -158 q 139 -175 149 -171 l 147 -200 q 400 -75 332 -126 q 497 44 469 -26 q 519 201 519 103 l 519 476 q 511 571 519 535 q 453 660 500 621 l 422 685 l 228 528 l 228 775 q 290 913 228 868 q 311 928 307 924 l 303 943 q 142 860 199 925 q 40 931 88 910 l 29 911 q 89 774 89 864 l 89 124 l 33 78 l 150 -18 z "},"i":{"ha":339,"x_min":49,"x_max":329,"o":"m 329 96 l 313 119 l 271 85 l 232 119 l 232 549 l 279 592 l 164 686 l 49 596 l 97 554 l 97 199 q 53 108 97 124 l 53 94 q 116 49 83 76 q 185 -17 149 21 l 329 96 m 176 806 l 210 803 l 325 960 l 210 964 l 176 806 z "},"j":{"ha":314,"x_min":14,"x_max":319,"o":"m 14 575 l 29 554 l 75 586 l 125 536 q 89 340 89 432 q 94 265 89 311 q 111 154 100 218 q 132 0 132 35 q 29 -178 132 -107 l 38 -199 q 189 -89 142 -144 q 250 82 250 -17 q 247 140 250 106 q 236 219 243 174 q 226 299 229 265 q 222 357 222 333 q 292 567 222 472 q 161 685 225 608 l 14 575 m 174 807 l 208 803 l 319 963 l 201 963 l 174 807 z "},"k":{"ha":583,"x_min":19,"x_max":593,"o":"m 593 100 l 579 121 l 542 90 q 517 138 522 114 q 498 223 506 186 q 485 285 490 260 q 447 349 475 315 q 396 404 432 367 l 393 407 q 388 413 389 407 l 536 547 l 406 686 l 229 515 l 229 769 q 263 892 229 858 q 304 925 292 914 l 300 943 q 133 857 194 921 q 28 922 93 901 l 19 904 q 75 838 60 878 q 88 750 88 806 l 88 200 q 82 143 88 158 q 43 104 74 114 l 43 83 q 208 -17 143 54 l 385 126 q 446 -17 399 36 l 593 100 m 229 139 l 229 269 l 288 321 q 381 160 360 269 l 297 90 l 229 139 m 229 306 l 229 479 l 332 578 l 424 479 l 229 306 z "},"l":{"ha":315,"x_min":21,"x_max":342,"o":"m 342 90 l 322 113 l 293 90 l 225 138 l 225 750 q 231 831 225 808 q 271 899 242 874 q 287 912 281 906 q 297 922 293 918 l 290 943 q 136 854 193 918 q 28 922 94 893 l 21 900 q 79 836 64 878 q 89 747 89 811 l 89 201 q 42 103 89 125 l 42 81 q 210 -17 139 56 l 342 90 z "},"m":{"ha":904,"x_min":11,"x_max":892,"o":"m 11 574 l 28 547 q 36 552 33 550 q 42 556 39 554 l 43 556 q 67 565 57 565 q 97 521 93 564 l 97 131 l 49 81 l 169 -17 l 282 76 l 232 126 l 232 497 l 328 578 l 339 567 q 349 554 340 565 q 383 465 383 511 l 383 126 l 339 76 l 456 -17 l 569 76 l 519 126 l 519 497 l 619 583 l 669 528 l 669 182 q 708 25 669 72 q 758 -17 742 -3 l 892 93 l 875 114 q 836 94 851 94 q 807 147 807 96 l 807 468 q 856 597 807 549 l 871 613 l 853 632 l 799 579 l 701 686 l 517 526 q 419 686 510 617 l 232 526 q 225 600 232 569 q 156 686 214 642 l 11 574 z "},"n":{"ha":617,"x_min":17,"x_max":613,"o":"m 17 582 l 33 560 q 68 574 53 574 q 99 526 97 574 l 99 522 l 99 500 q 97 494 97 499 l 97 133 l 43 83 l 161 -17 l 281 81 l 233 131 l 233 511 l 329 590 l 383 535 l 383 186 q 418 33 383 82 q 445 3 433 15 q 467 -17 457 -10 l 613 100 l 596 126 q 585 118 585 118 l 585 117 q 553 101 565 101 q 519 168 519 101 l 519 444 q 546 575 519 535 q 571 606 560 593 q 590 626 582 618 l 571 649 l 506 586 l 406 686 l 233 543 q 214 624 233 592 q 154 686 200 646 l 17 582 z "},"o":{"ha":540,"x_min":31,"x_max":485,"o":"m 485 92 l 485 585 q 265 685 365 617 q 69 572 178 606 l 69 256 q 68 210 69 235 q 64 154 67 185 q 31 104 61 126 l 31 86 q 283 -17 161 75 q 328 13 303 -1 q 381 43 353 28 q 422 64 396 51 q 485 92 449 76 m 204 578 l 349 515 l 349 94 l 204 157 l 204 578 z "},"p":{"ha":582,"x_min":14,"x_max":526,"o":"m 14 139 l 14 90 q 96 82 67 85 l 96 -3 q 69 -121 96 -86 q 32 -158 54 -140 l 38 -175 q 51 -171 46 -171 q 150 -111 117 -144 q 297 -197 221 -175 l 310 -172 q 235 -29 235 -137 l 235 38 q 335 -17 290 18 q 526 115 396 47 l 526 454 q 457 633 526 568 q 418 665 435 651 q 390 686 401 678 l 235 538 q 183 658 233 614 q 165 674 172 668 q 151 686 157 681 l 18 579 l 32 560 l 35 563 l 36 563 q 60 572 47 572 q 94 522 88 572 q 96 508 96 518 l 96 150 q 42 142 63 144 q 14 139 21 140 m 235 150 l 235 496 l 317 572 q 374 521 363 542 q 388 444 388 499 l 388 99 q 317 130 356 117 q 235 150 279 143 z "},"q":{"ha":565,"x_min":60,"x_max":554,"o":"m 350 126 l 350 1 q 342 -94 350 -60 q 265 -176 331 -137 l 269 -197 q 433 -115 381 -176 q 544 -176 494 -162 l 554 -157 q 496 -86 506 -110 q 488 4 488 -64 l 488 485 q 489 504 488 497 q 526 551 493 531 l 526 571 q 265 683 400 582 q 99 582 196 622 q 60 569 71 571 l 60 199 q 99 42 60 82 q 174 -17 146 1 l 350 126 m 350 494 l 350 161 l 260 86 q 222 119 231 108 q 200 219 200 146 l 200 568 l 350 494 z "},"r":{"ha":454,"x_min":7,"x_max":468,"o":"m 7 568 l 24 549 l 64 582 l 78 568 q 97 489 97 544 l 97 208 q 50 99 97 125 l 50 82 q 219 -17 135 65 l 388 118 l 368 140 l 304 90 l 236 140 l 236 531 l 292 579 l 374 478 l 468 565 l 368 689 l 242 574 q 144 686 215 646 l 7 568 z "},"s":{"ha":560,"x_min":14,"x_max":551,"o":"m 14 -1 l 32 -17 q 171 35 97 35 q 325 -17 240 35 q 517 90 414 60 l 517 361 l 375 443 l 492 604 q 551 719 544 678 l 551 732 q 501 790 551 790 q 461 750 461 790 q 476 713 461 728 q 478 711 476 711 q 492 679 492 697 q 467 644 492 657 q 424 635 449 635 q 243 685 343 635 q 164 610 182 624 q 61 564 126 583 l 61 318 l 190 247 l 14 -1 m 376 288 l 376 99 q 261 139 306 138 q 253 140 258 140 l 244 140 l 226 140 q 215 139 219 139 q 208 139 211 139 q 196 136 201 138 q 183 133 190 135 l 149 124 l 296 332 l 376 288 m 197 392 l 197 576 q 286 539 235 553 q 313 534 300 536 q 342 532 326 532 l 357 532 q 397 538 379 532 l 265 353 l 197 392 z "},"t":{"ha":340,"x_min":38,"x_max":363,"o":"m 38 606 l 38 583 l 97 583 l 97 204 q 53 99 97 126 l 53 79 q 215 -17 150 54 l 363 104 l 343 128 l 300 92 l 278 108 q 251 127 263 119 q 233 140 240 135 l 233 583 l 350 583 l 350 658 l 233 658 l 233 865 l 38 606 z "},"u":{"ha":624,"x_min":22,"x_max":615,"o":"m 22 561 l 40 539 l 68 561 l 97 539 l 97 172 q 58 107 97 121 l 58 88 q 210 -17 124 61 l 392 147 q 404 65 392 96 q 476 -17 422 18 l 615 89 l 594 111 q 563 97 581 97 q 526 160 526 97 l 526 544 l 572 585 l 456 686 l 343 585 l 392 544 l 392 185 l 294 96 l 233 144 l 233 544 l 279 585 l 164 686 l 22 561 z "},"v":{"ha":576,"x_min":32,"x_max":521,"o":"m 235 535 l 235 533 q 178 653 232 586 q 147 692 158 678 q 132 713 135 707 q 121 751 119 735 q 172 829 124 788 q 188 842 183 838 l 174 860 q 131 829 151 844 q 88 799 110 814 q 32 678 32 751 q 54 601 32 640 l 65 585 q 97 460 97 524 l 97 192 q 56 107 97 121 l 56 90 q 308 -17 182 89 q 521 101 393 64 l 521 435 q 520 494 521 471 q 518 531 519 518 q 485 618 511 582 q 444 658 461 642 q 414 686 426 675 l 235 535 m 235 160 l 235 503 l 331 582 q 376 518 367 549 q 385 438 385 494 l 385 93 q 235 160 311 128 z "},"w":{"ha":863,"x_min":19,"x_max":807,"o":"m 232 533 l 232 532 q 174 656 231 590 q 157 673 164 665 q 144 686 150 681 q 114 751 114 722 q 167 835 114 789 q 169 837 168 836 q 172 839 171 838 l 176 843 l 164 863 q 100 819 124 836 q 68 794 76 801 q 19 692 19 749 q 50 601 19 644 q 97 464 97 554 l 97 174 q 67 108 97 126 q 44 99 56 101 l 44 83 q 290 -17 188 75 q 422 49 351 49 q 599 -17 500 49 q 807 97 668 50 l 807 456 q 797 560 807 522 q 731 658 785 610 l 697 686 l 514 531 q 408 686 504 629 l 232 533 m 232 150 l 232 500 l 326 581 q 374 525 363 553 q 382 451 382 501 l 382 89 l 232 150 m 518 158 l 518 501 l 614 581 q 629 568 625 572 l 640 556 q 669 446 669 519 l 669 97 l 518 158 z "},"x":{"ha":568,"x_min":-3,"x_max":582,"o":"m -3 54 l 119 -17 l 253 267 l 256 261 q 258 258 257 260 q 260 256 258 257 q 265 244 261 249 l 328 115 q 444 -17 372 22 l 582 94 l 563 118 q 558 115 560 115 q 518 100 525 100 q 438 190 488 100 q 381 302 408 243 q 328 428 354 361 l 388 556 l 494 499 l 554 615 l 414 686 l 311 464 q 239 589 285 528 q 136 686 186 658 l -3 563 l 13 540 q 43 563 26 554 q 58 565 54 565 q 83 557 71 565 q 144 488 113 538 q 236 304 208 364 l 150 119 l 47 172 l -3 54 z "},"y":{"ha":531,"x_min":6,"x_max":517,"o":"m 6 568 l 24 547 l 26 550 q 28 551 28 551 q 31 553 29 551 q 65 569 51 569 q 99 519 96 569 l 99 515 l 99 493 q 97 488 97 492 l 97 147 q 53 17 97 82 q 8 -87 8 -49 q 50 -174 8 -144 q 146 -200 85 -200 q 224 -192 179 -200 q 317 -132 317 -174 q 289 -103 317 -103 q 231 -137 265 -103 q 143 -171 190 -171 q 72 -149 101 -171 q 43 -89 43 -128 q 71 -24 43 -51 q 135 22 107 4 q 182 51 163 40 q 318 139 263 100 q 406 210 374 178 q 517 450 517 318 l 517 463 q 515 474 517 469 q 490 585 507 543 q 426 681 468 636 l 236 528 q 172 667 236 621 q 156 678 161 674 q 147 685 150 683 l 6 568 m 235 493 l 329 567 q 382 397 382 490 l 382 389 l 382 381 q 337 234 376 306 q 235 121 297 163 l 235 493 z "},"z":{"ha":385,"x_min":0,"x_max":371,"o":"m 0 558 l 18 536 l 86 585 l 211 483 l 18 279 l 35 263 q 124 290 88 290 q 196 258 169 290 q 222 179 222 226 q 140 36 222 114 q 132 28 133 33 q 58 -94 58 -37 q 90 -162 58 -135 q 161 -189 121 -189 l 168 -189 q 174 -187 172 -189 q 207 -157 207 -183 q 188 -140 207 -144 l 182 -140 q 159 -144 174 -140 q 136 -149 144 -149 q 90 -99 94 -149 l 90 -94 q 114 -47 93 -67 q 219 24 144 -19 q 325 99 294 67 q 371 221 371 149 q 356 292 371 260 q 315 346 342 324 q 254 381 289 368 q 181 393 219 393 q 171 392 176 392 q 161 392 165 390 l 338 578 l 326 592 q 318 590 324 590 q 310 590 314 588 l 308 589 q 244 621 289 589 q 169 685 208 646 l 0 558 z "},"{":{"ha":694,"x_min":167,"x_max":525,"o":"m 315 339 l 315 338 q 378 406 361 365 q 392 500 392 438 l 392 685 q 422 783 392 757 q 525 807 450 806 l 525 942 l 500 940 q 379 936 418 938 q 276 872 311 928 q 246 751 246 825 l 246 522 q 167 400 246 418 l 167 283 q 246 154 246 260 l 246 -56 q 311 -228 246 -183 q 499 -261 361 -261 l 513 -261 q 519 -260 514 -260 l 525 -260 l 525 -133 q 419 -107 446 -131 q 392 -7 392 -83 l 392 174 q 315 339 392 293 z "},"|":{"ha":694,"x_min":274,"x_max":422,"o":"m 274 925 l 274 -231 l 422 -231 l 422 925 l 274 925 z "},"}":{"ha":694,"x_min":169,"x_max":528,"o":"m 381 342 l 381 340 q 317 274 333 314 q 303 181 303 242 l 303 -4 q 274 -100 303 -78 q 169 -125 244 -124 l 169 -258 q 183 -260 174 -260 l 256 -260 q 299 -256 285 -257 q 315 -254 314 -254 q 449 -74 444 -243 l 449 -72 l 449 156 q 528 281 449 257 l 528 394 q 449 526 449 417 l 449 736 q 386 911 449 869 q 196 942 339 942 l 183 942 q 176 941 179 942 q 169 942 172 940 l 169 814 q 234 808 208 814 q 275 789 260 803 q 297 751 290 775 q 303 690 303 728 l 303 504 q 381 342 303 383 z "},"~":{"ha":926,"x_min":131,"x_max":799,"o":"m 206 790 l 206 789 q 328 885 261 886 q 396 869 361 885 q 493 821 444 846 q 596 794 550 794 q 799 963 728 794 l 722 1022 l 719 1017 q 604 926 674 926 q 471 972 560 926 q 332 1019 385 1019 q 131 851 203 1019 l 206 790 z "},"":{"ha":331,"x_min":47,"x_max":225,"o":"m 225 83 l 135 171 l 47 79 q 58 67 51 74 l 63 64 q 103 -7 103 21 q 58 -79 103 -39 q 47 -89 50 -87 l 58 -115 q 225 83 189 -68 z "},"":{"ha":821,"x_min":78,"x_max":738,"o":"m 657 621 l 514 621 l 536 750 q 569 854 549 822 q 664 897 599 897 q 687 897 675 897 q 711 894 699 896 q 719 894 715 892 l 738 992 q 717 994 731 992 l 686 997 q 669 999 678 999 q 653 999 661 999 q 446 911 489 999 q 397 769 415 849 q 385 708 392 746 q 371 621 378 671 l 231 621 l 215 533 l 354 533 l 275 83 q 261 19 268 51 q 247 -46 254 -14 q 150 -122 225 -122 l 136 -122 q 122 -121 126 -122 q 108 -120 115 -121 q 94 -118 101 -119 l 78 -217 q 122 -222 101 -219 q 160 -224 143 -224 q 342 -156 286 -224 q 408 32 385 -104 l 497 533 l 643 533 l 657 621 z "},"":{"ha":483,"x_min":47,"x_max":438,"o":"m 225 83 l 135 171 l 47 79 q 58 67 51 74 l 63 64 q 103 -7 103 21 q 58 -79 103 -39 q 47 -89 50 -87 l 58 -115 q 225 83 189 -68 m 438 83 l 347 171 l 260 79 l 271 68 q 315 -7 315 24 q 300 -50 315 -31 q 276 -74 286 -64 q 260 -89 267 -83 l 271 -115 q 438 83 401 -68 z "},"":{"ha":1001,"x_min":67,"x_max":935,"o":"m 67 82 l 167 -17 l 267 82 l 167 182 l 67 82 m 400 82 l 500 -17 l 601 82 l 500 182 l 400 82 m 735 82 l 835 -17 l 935 82 l 835 182 l 735 82 z "},"":{"ha":806,"x_min":85,"x_max":722,"o":"m 722 646 l 471 646 l 471 925 l 336 925 l 336 646 l 85 646 l 85 528 l 336 528 l 336 -224 l 471 -224 l 471 528 l 722 528 l 722 646 z "},"":{"ha":806,"x_min":85,"x_max":721,"o":"m 721 675 l 469 675 l 469 925 l 336 925 l 336 675 l 85 675 l 85 560 l 336 560 l 336 142 l 85 142 l 85 28 l 336 28 l 336 -224 l 469 -224 l 469 28 l 721 28 l 721 142 l 469 142 l 469 560 l 721 560 l 721 675 z "},"":{"ha":694,"x_min":133,"x_max":563,"o":"m 133 786 l 164 769 l 272 879 l 475 769 l 563 860 l 332 992 l 133 786 z "},"":{"ha":1069,"x_min":46,"x_max":1022,"o":"m 526 -17 q 633 84 594 17 q 672 231 672 151 q 626 356 672 299 q 517 432 581 410 q 369 194 369 335 q 526 -17 369 46 m 578 63 l 578 61 q 475 131 515 82 q 435 242 435 179 q 464 349 435 299 q 607 160 607 301 q 578 63 607 100 m 876 -17 q 983 84 944 17 q 1022 231 1022 151 q 976 356 1022 299 q 867 432 931 410 q 719 194 719 335 q 876 -17 719 46 m 928 63 l 928 61 q 826 131 865 82 q 786 242 786 179 q 815 349 786 299 q 958 160 958 301 l 958 144 q 928 63 953 93 m 114 14 l 158 -8 l 606 858 l 561 881 l 114 14 m 203 439 l 203 438 q 310 540 271 474 q 349 686 349 607 q 304 810 349 754 q 193 888 260 865 q 46 650 46 792 q 203 439 46 500 m 254 518 l 254 517 q 153 587 194 538 q 113 699 113 636 l 113 710 q 114 721 113 717 q 124 764 117 743 q 142 804 131 785 q 285 615 285 757 q 254 518 285 558 z "},"":{"ha":1013,"x_min":13,"x_max":989,"o":"m 399 944 l 399 943 q 157 610 157 765 q 40 463 40 561 q 93 358 40 392 q 236 311 160 313 q 264 311 250 310 l 358 311 l 310 225 q 197 233 253 233 q 76 200 128 233 q 14 99 13 163 q 147 -14 15 3 q 163 -15 156 -14 l 179 -15 q 461 68 296 -15 q 487 55 472 61 q 518 42 501 49 q 613 6 551 21 q 858 158 775 86 q 989 401 989 271 q 858 599 989 535 q 642 639 775 639 l 596 639 q 590 638 594 638 q 585 639 586 638 l 736 906 l 711 922 l 669 849 l 399 944 m 419 82 l 419 81 q 158 13 288 13 q 149 14 153 13 l 139 14 q 76 71 76 24 q 97 110 76 97 q 175 129 129 129 q 419 82 279 129 m 465 435 l 515 521 q 588 525 551 524 q 661 526 625 526 q 818 482 753 526 q 894 343 894 431 q 733 106 894 218 q 725 100 729 104 q 701 110 714 106 q 676 121 689 115 l 626 140 l 660 158 q 696 179 681 171 q 821 335 821 254 q 704 443 821 418 q 644 449 681 449 q 585 444 628 449 q 569 443 579 444 q 554 442 560 442 q 506 435 528 436 q 465 435 483 433 m 343 221 l 396 311 q 418 315 410 311 l 561 331 q 631 335 600 335 q 679 322 658 335 q 706 281 706 306 q 682 229 706 253 q 622 185 647 203 q 579 156 597 167 q 521 174 550 165 q 463 190 492 183 l 343 221 m 479 518 l 429 429 l 388 426 q 346 424 367 425 q 303 424 325 424 l 261 424 q 171 444 210 424 q 124 518 124 471 q 161 583 124 556 q 222 518 181 533 q 315 507 256 507 q 397 510 356 507 q 479 518 438 513 m 610 746 l 546 635 q 488 628 513 631 q 446 624 463 625 l 411 624 q 392 622 400 622 q 378 622 383 622 l 369 622 l 361 622 q 243 717 243 628 q 276 790 243 760 q 353 825 308 821 l 364 825 q 610 746 457 825 m 722 1192 l 692 1208 l 583 1099 l 381 1208 l 293 1118 l 524 986 l 722 1192 z "},"":{"ha":397,"x_min":46,"x_max":324,"o":"m 318 160 l 147 400 l 324 615 l 285 650 l 46 351 l 239 81 l 318 160 z "},"":{"ha":1486,"x_min":32,"x_max":1476,"o":"m 893 756 l 893 754 q 621 917 806 874 q 546 933 571 926 l 93 664 q 32 396 32 514 q 144 107 32 224 q 429 -10 258 -10 q 831 203 611 -10 l 839 211 q 846 219 843 215 l 846 56 q 828 41 836 49 q 811 26 819 33 l 776 -4 l 793 -21 q 1026 43 904 43 q 1232 4 1136 43 q 1263 -7 1246 1 q 1303 -26 1281 -15 l 1476 133 l 1460 153 l 1397 93 q 1222 158 1294 158 q 1064 129 1144 158 l 1064 465 q 1188 424 1131 424 q 1397 556 1332 424 l 1378 572 q 1278 529 1329 529 q 1140 592 1200 529 l 1064 531 l 1064 822 l 1114 854 q 1275 769 1186 769 l 1283 769 l 1289 769 q 1467 879 1417 781 l 1451 893 q 1372 872 1411 872 q 1203 956 1263 872 l 969 793 q 893 756 938 772 m 1036 803 l 1036 117 q 1003 101 1017 107 q 981 89 990 94 l 981 765 l 1036 803 m 474 811 l 474 92 q 247 201 342 106 l 292 235 q 345 283 324 260 q 379 332 367 306 q 397 390 392 358 q 403 463 403 421 l 403 815 q 421 815 413 815 q 439 814 429 815 l 474 811 m 504 93 l 504 342 q 657 414 567 414 q 821 332 751 414 q 700 161 785 228 q 504 93 608 92 m 274 736 l 274 376 q 268 294 274 315 q 226 225 257 254 q 139 474 139 346 q 274 736 139 636 m 504 385 l 504 590 q 664 529 582 529 q 829 590 744 529 q 849 489 849 539 q 832 365 849 425 q 657 443 746 443 q 504 385 575 443 m 504 622 l 504 807 q 554 797 542 803 q 818 621 744 750 q 663 557 750 557 q 504 622 581 557 z "},"":{"ha":694,"x_min":25,"x_max":669,"o":"m 347 296 l 347 294 q 302 276 321 294 q 283 232 283 258 q 302 187 283 206 q 347 168 321 168 q 392 187 374 168 q 411 232 411 206 q 392 276 411 258 q 347 296 374 294 m 25 519 l 25 446 l 669 446 l 669 519 l 25 519 m 347 796 l 347 794 q 303 776 321 794 q 285 731 285 757 q 303 687 285 706 q 347 668 322 668 q 392 686 374 668 q 411 731 411 704 q 392 776 411 757 q 347 796 374 794 z "},"":{"ha":269,"x_min":46,"x_max":224,"o":"m 224 857 l 133 944 l 46 853 q 57 840 50 847 l 61 838 q 101 764 101 794 q 57 692 101 732 q 46 683 50 685 l 57 656 q 224 857 189 704 z "},"":{"ha":483,"x_min":47,"x_max":438,"o":"m 47 744 l 138 657 l 225 746 q 205 760 215 750 q 186 784 194 771 q 173 810 178 797 q 168 835 168 824 q 215 908 168 874 l 225 918 l 214 943 q 47 744 82 890 m 260 744 l 350 657 l 438 746 l 426 757 q 382 835 382 801 q 431 911 382 869 l 438 918 l 426 943 q 260 744 294 890 z "},"":{"ha":483,"x_min":47,"x_max":438,"o":"m 225 857 l 135 944 l 47 853 q 58 840 51 847 l 63 838 q 103 764 103 794 q 58 692 103 732 q 47 683 51 685 l 58 656 q 225 857 190 704 m 438 857 l 347 944 l 260 853 l 271 842 q 315 764 315 797 q 267 688 315 729 q 260 683 263 683 l 271 656 q 438 857 403 704 z "},"":{"ha":833,"x_min":275,"x_max":544,"o":"m 275 397 l 275 396 q 314 301 275 340 q 408 263 353 263 q 506 300 467 263 q 544 396 544 338 q 506 492 544 454 q 408 529 467 529 q 314 491 353 529 q 275 397 275 453 z "},"":{"ha":617,"x_min":18,"x_max":617,"o":"m 68 407 l 68 406 q 18 296 47 347 l 568 296 q 593 356 581 328 q 617 408 606 385 l 68 407 z "},"":{"ha":799,"x_min":18,"x_max":781,"o":"m 68 407 l 68 406 q 18 296 47 347 l 732 294 q 757 355 744 326 q 781 407 769 383 l 68 407 z "},"":{"ha":694,"x_min":111,"x_max":585,"o":"m 111 843 l 140 822 l 208 876 l 392 771 l 585 939 l 556 961 l 464 881 l 279 985 l 111 843 z "},"":{"ha":1357,"x_min":-14,"x_max":1350,"o":"m 1350 436 l 1329 458 l 1303 438 q 1283 482 1283 449 l 1283 772 q 1284 794 1283 783 q 1286 815 1285 804 q 1297 847 1288 832 q 1305 857 1300 850 q 1317 875 1310 864 q 1322 881 1319 878 q 1326 888 1324 883 l 1304 904 q 1268 872 1279 882 l 1181 939 l 1040 843 l 1039 844 q 979 932 1038 896 q 974 935 976 932 q 874 881 908 897 q 753 792 790 838 q 707 651 710 738 q 601 582 631 639 l 624 564 l 626 567 q 628 569 628 568 q 668 592 646 592 q 739 521 719 592 q 746 481 746 500 q 725 425 746 443 q 669 401 713 413 l 668 400 l 667 400 q 607 372 625 388 q 586 310 586 351 l 586 303 q 588 296 586 297 l 614 294 q 650 329 619 329 l 667 329 q 683 328 674 328 q 700 326 692 326 q 717 325 708 325 q 850 471 850 325 l 850 621 l 946 621 l 946 513 q 935 468 946 479 l 929 463 q 919 457 925 458 l 919 442 q 1014 357 972 407 l 1161 482 l 1140 501 l 1117 482 l 1117 622 l 1169 689 l 1117 689 l 1117 863 l 1132 872 l 1183 833 l 1183 486 q 1189 425 1183 446 q 1247 358 1199 385 l 1350 436 m 753 400 l 753 399 q 793 451 785 419 q 800 519 800 475 l 800 721 q 828 815 800 783 q 821 740 821 781 l 821 497 q 813 428 821 444 q 753 400 797 400 m 1088 621 l 1088 460 q 1069 450 1082 450 q 1042 493 1043 450 l 1042 501 l 1042 621 l 1088 621 m 946 689 l 876 689 l 850 653 l 850 740 q 856 808 850 786 q 913 869 863 840 q 946 800 946 850 l 946 689 m 1042 689 l 1042 811 l 1088 843 l 1088 689 l 1042 689 m 403 451 l 403 822 l 417 822 q 424 821 418 821 l 431 821 q 531 853 490 821 q 576 943 571 885 l 556 949 q 468 903 526 903 q 339 918 428 903 q 210 933 250 933 q -14 758 28 933 l 7 747 q 76 831 36 808 q 188 853 117 853 q 90 767 131 825 q 36 610 36 689 q 117 432 36 503 q 301 363 194 363 q 478 419 400 363 q 578 569 554 475 l 556 574 q 403 451 497 472 m 374 828 l 374 446 q 368 444 372 444 l 363 444 q 351 443 358 443 l 338 443 q 225 476 276 443 l 228 476 l 261 501 q 314 558 300 531 q 328 636 328 586 l 328 836 l 374 828 m 229 849 l 229 572 q 199 493 229 515 q 124 651 124 560 q 124 663 124 657 q 125 675 124 668 l 128 699 q 229 849 151 806 z "},"":{"ha":560,"x_min":14,"x_max":551,"o":"m 14 -1 l 32 -17 q 171 35 97 35 q 325 -17 240 35 q 517 90 414 60 l 517 361 l 375 443 l 492 604 q 551 719 544 678 l 551 732 q 501 790 551 790 q 461 750 461 790 q 476 713 461 728 q 478 711 476 711 q 492 679 492 697 q 467 644 492 657 q 424 635 449 635 q 243 685 343 635 q 164 610 182 624 q 61 564 126 583 l 61 318 l 190 247 l 14 -1 m 376 288 l 376 99 q 261 139 306 138 q 253 140 258 140 l 244 140 l 226 140 q 215 139 219 139 q 208 139 211 139 q 196 136 201 138 q 183 133 190 135 l 149 124 l 296 332 l 376 288 m 197 392 l 197 576 q 286 539 235 553 q 313 534 300 536 q 342 532 326 532 l 357 532 q 397 538 379 532 l 265 353 l 197 392 m 463 975 l 432 992 l 324 882 l 121 992 l 33 901 l 264 769 l 463 975 z "},"":{"ha":397,"x_min":74,"x_max":351,"o":"m 78 571 l 250 329 l 74 115 l 111 81 l 351 379 l 157 650 l 78 571 z "},"":{"ha":746,"x_min":31,"x_max":736,"o":"m 386 47 l 386 46 q 448 18 422 31 q 490 -3 474 6 q 515 -17 515 -17 l 718 122 l 704 143 l 606 74 q 535 108 565 93 q 485 135 504 124 l 485 265 l 736 479 l 567 700 q 401 610 483 647 q 265 685 340 633 q 69 572 178 606 l 69 231 q 68 204 69 224 q 64 154 67 185 q 31 104 61 126 l 31 86 q 283 -17 163 75 q 343 21 318 6 q 386 47 368 36 m 349 515 l 349 174 l 349 168 q 347 161 347 165 q 325 104 339 118 l 204 157 l 204 578 l 349 515 m 485 313 l 485 615 l 625 431 l 485 313 z "},"":{"ha":932,"x_min":-1,"x_max":900,"o":"m 42 868 l 42 867 q 92 882 68 882 q 218 732 201 882 q 220 703 219 719 q 221 665 221 686 l 221 614 q 100 657 161 657 q 29 638 71 657 l 35 614 l 40 614 q 46 615 44 614 l 56 615 q 183 553 139 615 q 221 410 219 499 l 221 406 l 221 401 q 85 454 151 454 q 72 454 78 454 q 60 453 67 454 l 35 450 l 35 431 q 176 347 128 422 q 221 183 218 285 l 221 182 l 221 179 q 68 132 129 179 q 0 -6 -1 79 q 68 -142 0 -87 q 217 -189 135 -190 q 406 -122 288 -186 q 567 -58 524 -58 l 572 -58 q 576 -60 575 -58 q 596 -76 596 -62 q 590 -90 596 -89 q 572 -140 572 -118 q 589 -185 572 -167 q 632 -203 606 -203 q 693 -135 693 -203 q 632 -42 693 -78 q 518 -12 582 -12 q 336 -58 454 -12 q 161 -104 217 -104 q 70 -72 108 -104 q 32 11 32 -39 q 75 100 32 67 q 219 149 140 149 q 278 148 243 149 q 363 146 314 147 q 446 144 411 144 q 506 144 482 144 q 900 583 900 144 l 900 588 l 900 592 q 826 804 899 714 q 629 900 749 900 q 483 864 563 900 q 431 837 464 856 q 350 790 397 818 q 165 943 322 943 q 26 890 92 943 l 42 868 m 350 181 l 350 750 l 413 788 l 413 181 l 350 181 m 443 181 l 443 376 q 581 433 517 433 q 747 368 669 433 q 443 181 685 178 m 443 414 l 443 603 q 596 547 508 547 q 754 610 672 547 q 764 501 764 575 q 754 403 764 456 q 585 464 678 464 q 443 414 515 464 m 443 644 l 443 801 q 543 828 497 828 q 675 771 618 828 q 744 643 725 719 q 592 576 679 576 q 443 644 517 576 m 256 1092 l 343 1004 l 429 1092 l 343 1179 l 256 1092 m 513 1092 l 600 1004 l 686 1092 l 600 1179 l 513 1092 z "},"":{"ha":443,"x_min":46,"x_max":399,"o":"m 144 -200 q 317 -158 247 -200 q 399 -8 399 -106 q 367 93 399 44 q 297 179 367 94 q 199 431 210 286 l 172 429 q 171 424 172 426 l 171 418 l 171 407 q 214 194 171 311 q 258 31 258 74 q 249 -7 258 11 q 226 -38 240 -25 q 192 -60 211 -51 q 153 -68 174 -68 q 61 -21 113 -68 l 46 -32 l 144 -200 m 182 481 l 281 579 l 182 678 l 85 579 l 182 481 z "},"":{"ha":536,"x_min":56,"x_max":518,"o":"m 314 643 l 426 583 l 518 690 l 322 797 q 314 793 318 793 l 318 913 l 271 883 l 276 764 l 274 760 q 56 385 56 589 q 276 83 56 171 l 276 -1 q 276 -26 276 -14 q 274 -53 275 -39 l 318 -25 l 314 74 l 339 69 l 450 193 q 428 191 439 192 q 406 190 417 190 q 314 221 358 190 l 314 643 m 276 664 l 276 244 q 182 429 182 310 q 231 635 182 535 l 251 676 l 276 664 z "},"":{"ha":761,"x_min":-8,"x_max":769,"o":"m 200 729 l 200 728 q 178 610 178 665 q 200 482 178 557 l 38 482 l -1 368 l 240 367 q 281 157 281 265 l 281 149 q 279 146 279 147 l 279 140 q -8 7 113 86 l 4 -17 q 112 24 57 7 q 225 47 167 40 q 278 52 251 50 q 332 54 304 54 q 696 -17 506 54 l 769 126 q 624 171 696 157 q 575 178 600 176 q 526 181 550 181 q 322 154 426 181 q 397 368 397 256 l 586 368 l 629 482 l 379 481 q 346 632 346 560 q 397 783 346 701 l 658 625 l 760 744 l 524 889 l 200 729 z "},"":{"ha":969,"x_min":79,"x_max":890,"o":"m 81 150 l 158 72 l 292 204 q 483 139 399 139 q 681 206 590 139 l 814 72 l 890 150 l 757 282 q 818 471 818 385 q 754 665 818 564 l 888 797 l 810 875 l 674 739 l 665 744 q 656 749 660 747 q 489 801 561 801 q 388 783 433 801 q 353 769 376 779 q 294 740 329 758 l 157 876 l 79 799 l 215 663 q 151 472 151 560 q 213 283 151 374 l 81 150 m 485 678 l 485 676 q 628 615 567 676 q 688 472 688 556 q 628 328 688 388 q 485 268 568 268 q 342 328 401 268 q 282 472 282 388 q 342 615 282 556 q 485 678 403 676 z "},"":{"ha":844,"x_min":14,"x_max":829,"o":"m 343 0 l 496 0 l 496 333 l 771 333 l 771 396 l 514 396 l 610 554 l 811 554 l 811 615 l 644 615 l 829 926 l 665 926 l 421 488 l 176 924 l 14 924 l 197 615 l 32 615 l 32 554 l 232 554 l 326 396 l 82 396 l 82 333 l 343 333 l 343 0 z "},"":{"ha":350,"x_min":133,"x_max":217,"o":"m 133 938 l 133 451 l 217 451 l 217 938 l 133 938 m 133 -243 l 217 -243 l 217 243 l 133 243 l 133 -243 z "},"":{"ha":799,"x_min":92,"x_max":746,"o":"m 676 675 l 676 674 q 603 849 672 786 q 419 913 533 913 q 250 865 322 913 q 168 718 168 811 q 231 589 168 644 q 92 407 92 538 q 168 258 92 322 q 228 219 190 240 q 321 171 265 197 l 371 147 q 440 112 411 128 q 485 85 469 96 q 550 -18 550 36 q 439 -121 550 -104 q 431 -122 438 -122 l 419 -122 q 267 29 281 -122 l 151 28 q 224 -159 151 -94 q 421 -224 296 -224 l 435 -224 q 600 -168 531 -224 q 678 -15 678 -107 q 606 125 678 61 q 707 193 668 144 q 746 304 746 242 q 669 453 746 389 q 609 494 646 472 q 519 543 572 517 q 472 566 492 557 q 438 582 451 575 q 383 610 406 597 q 347 633 360 624 q 294 715 294 674 q 404 814 294 796 q 413 815 407 815 l 421 815 q 522 777 485 815 q 560 675 558 739 l 676 675 m 299 529 l 299 528 q 327 517 313 524 q 357 504 342 511 l 363 501 q 469 445 418 475 q 567 383 519 415 l 569 383 l 571 381 q 632 288 632 335 q 606 223 632 251 q 542 185 579 194 q 535 182 539 182 q 458 219 492 201 q 401 250 425 236 q 264 333 290 314 q 225 369 244 350 q 206 418 206 389 q 299 529 206 503 z "},"":{"ha":694,"x_min":132,"x_max":563,"o":"m 132 878 l 219 790 l 306 878 l 219 965 l 132 878 m 389 878 l 476 790 l 563 878 l 476 965 l 389 878 z "},"":{"ha":1079,"x_min":60,"x_max":1018,"o":"m 540 943 l 540 942 q 200 801 340 942 q 60 463 60 661 q 200 124 60 264 q 540 -15 339 -15 q 878 124 739 -15 q 1018 463 1018 264 q 878 801 1018 661 q 540 943 738 940 m 540 876 l 540 875 q 826 753 710 875 q 944 463 944 633 q 826 171 944 293 q 540 50 710 50 q 251 171 369 50 q 133 463 133 293 q 251 753 133 633 q 540 876 369 874 m 793 411 l 719 410 q 662 301 710 339 q 542 263 614 263 q 413 324 461 263 q 369 463 369 379 q 413 604 369 549 q 542 668 460 668 q 651 639 604 668 q 713 554 699 610 l 785 553 q 706 694 776 642 q 543 747 636 747 q 350 665 424 747 q 278 461 278 585 q 350 261 278 342 q 542 182 422 182 q 638 199 593 182 q 715 245 682 215 q 769 317 749 275 q 793 411 789 360 z "},"":{"ha":483,"x_min":40,"x_max":456,"o":"m 456 475 l 40 475 l 40 407 l 456 407 l 456 475 m 394 599 l 386 608 q 383 607 385 607 l 379 604 q 363 599 371 596 l 361 597 q 340 629 344 599 l 340 801 q 347 875 340 851 q 356 899 350 886 q 369 926 363 911 l 358 932 q 321 914 340 914 q 222 943 281 914 q 214 947 217 946 q 208 950 211 949 q 107 915 165 915 l 99 915 q 90 918 96 915 l 161 789 q 135 753 147 771 q 108 718 122 736 q 83 633 82 675 q 147 529 85 574 l 257 618 q 288 547 261 578 l 297 539 q 307 529 301 533 l 394 599 m 257 740 l 257 639 l 204 594 q 153 685 153 642 q 171 778 153 736 l 257 740 m 257 856 l 257 757 l 178 790 l 117 903 l 257 856 z "},"":{"ha":613,"x_min":46,"x_max":539,"o":"m 318 160 l 147 400 l 324 615 l 285 650 l 46 351 l 239 81 l 318 160 m 533 160 l 363 400 l 539 615 l 500 650 l 261 351 l 454 81 l 533 160 z "},"":{"ha":694,"x_min":46,"x_max":647,"o":"m 503 0 l 647 0 l 647 393 l 46 393 l 46 263 l 503 263 l 503 0 z "},"":{"ha":1079,"x_min":60,"x_max":1018,"o":"m 540 943 l 540 942 q 200 801 340 942 q 60 463 60 661 q 200 124 60 264 q 540 -15 340 -15 q 878 124 739 -15 q 1018 463 1018 264 q 878 801 1018 661 q 540 943 738 940 m 540 876 l 540 875 q 826 753 710 875 q 944 463 944 633 q 826 171 944 293 q 540 50 710 50 q 251 171 369 50 q 133 463 133 293 q 251 753 133 633 q 540 876 369 874 m 335 733 l 335 192 l 426 192 l 426 424 l 532 422 q 640 386 622 419 q 664 254 664 336 l 664 242 q 675 192 664 211 l 764 190 q 752 230 757 206 q 746 288 747 254 q 742 345 744 322 q 735 382 740 368 q 661 450 718 429 q 757 588 757 492 q 704 696 757 664 q 588 731 660 722 q 574 733 581 732 q 564 733 568 733 l 335 733 m 426 675 l 547 674 q 667 581 667 671 q 538 479 667 479 l 426 479 l 426 675 z "},"":{"ha":694,"x_min":144,"x_max":549,"o":"m 549 896 l 144 896 l 144 831 l 549 831 l 549 896 z "},"":{"ha":694,"x_min":142,"x_max":551,"o":"m 551 719 l 551 718 q 490 864 551 803 q 346 925 429 925 q 199 863 257 925 q 142 713 142 801 q 203 572 142 633 q 346 514 263 514 q 490 574 431 514 q 551 719 551 635 m 488 719 l 488 718 q 476 663 488 689 q 445 618 465 638 q 399 588 425 599 q 344 576 374 576 q 247 618 289 576 q 206 715 206 660 q 217 772 206 744 q 247 818 228 799 q 291 849 265 838 q 346 861 317 861 q 444 818 403 861 q 488 719 488 776 z "},"":{"ha":694,"x_min":25,"x_max":669,"o":"m 25 133 l 25 60 l 669 60 l 669 133 l 25 133 m 25 533 l 25 458 l 308 458 l 308 194 l 385 194 l 385 458 l 669 458 l 669 533 l 385 533 l 385 804 l 308 804 l 308 533 l 25 533 z "},"":{"ha":694,"x_min":214,"x_max":481,"o":"m 214 796 l 432 842 l 481 963 l 360 963 l 214 796 z "},"":{"ha":769,"x_min":83,"x_max":685,"o":"m 83 -232 l 219 -232 l 219 78 q 381 -14 275 -14 q 549 114 499 -14 l 549 0 l 685 0 l 685 665 l 549 665 l 549 308 q 510 161 549 221 q 382 90 464 90 q 219 300 219 90 l 219 665 l 83 665 l 83 -232 z "},"":{"ha":806,"x_min":53,"x_max":697,"o":"m 328 -156 l 404 -156 l 404 867 l 543 867 l 543 -156 l 619 -156 l 619 867 l 697 867 l 697 926 l 358 925 q 53 679 53 924 q 122 506 53 575 q 299 439 190 439 l 328 439 l 328 -156 z "},"":{"ha":681,"x_min":240,"x_max":440,"o":"m 240 329 l 340 229 l 440 329 l 340 429 l 240 329 z "},"":{"ha":694,"x_min":236,"x_max":458,"o":"m 236 -117 l 242 -119 q 332 -232 332 -165 q 306 -303 332 -264 l 314 -310 q 413 -181 413 -264 q 364 -93 413 -142 q 350 -79 358 -85 l 458 10 l 432 43 l 236 -117 z "},"":{"ha":483,"x_min":33,"x_max":449,"o":"m 449 475 l 33 475 l 33 407 l 449 407 l 449 475 m 369 594 l 369 889 q 238 949 299 907 q 119 882 179 899 l 119 663 q 119 646 119 654 q 117 631 118 638 q 106 609 110 614 q 97 601 101 604 l 97 590 q 249 526 176 583 q 319 567 289 550 q 369 594 349 585 m 201 886 l 288 849 l 288 596 l 201 633 l 201 886 z "},"":{"ha":613,"x_min":74,"x_max":567,"o":"m 78 571 l 250 329 l 74 115 l 111 81 l 351 379 l 157 650 l 78 571 m 293 571 l 465 329 l 289 115 l 326 81 l 567 379 l 372 650 l 293 571 z "},"":{"ha":397,"x_min":79,"x_max":310,"o":"m 192 -207 l 310 -89 q 238 149 263 21 q 211 428 214 278 l 176 426 q 79 -94 164 118 l 192 -207 m 192 472 l 290 571 l 192 671 l 93 571 l 192 472 z "},"":{"ha":874,"x_min":38,"x_max":878,"o":"m 878 110 l 856 133 q 850 128 854 132 q 844 124 846 125 q 804 103 819 103 q 778 122 786 103 q 764 211 764 151 l 764 217 l 764 222 l 742 692 q 740 714 740 707 q 740 719 740 721 l 740 743 q 753 826 740 793 q 825 904 767 865 l 847 919 l 832 942 q 756 897 792 924 q 688 836 719 871 q 668 851 676 844 q 653 861 660 857 q 383 947 518 947 l 378 947 l 371 947 q 139 846 240 942 q 38 622 38 750 q 214 335 38 444 l 114 188 q 90 153 103 169 q 67 118 78 136 q 42 39 42 76 q 43 32 42 35 l 43 25 q 89 -18 53 -18 q 125 10 122 -18 q 121 27 125 17 q 111 48 117 38 q 101 68 106 58 q 96 82 96 78 q 106 103 96 93 q 126 113 115 113 q 185 100 151 113 q 397 -22 283 60 l 631 160 q 635 108 632 131 q 642 67 638 85 q 721 -22 653 17 l 878 110 m 624 307 l 629 199 l 494 94 l 176 229 l 231 307 l 624 307 m 422 636 l 233 364 q 90 607 90 465 q 161 758 90 697 q 351 832 250 832 q 531 790 453 832 l 492 732 q 376 747 428 747 q 224 618 275 747 l 249 606 q 343 661 292 661 q 422 636 376 661 m 603 736 l 618 406 l 299 406 l 557 772 q 603 736 585 754 m 782 1032 l 636 1199 l 515 1199 l 564 1078 l 782 1032 z "},"":{"ha":874,"x_min":38,"x_max":878,"o":"m 878 110 l 856 133 q 850 128 854 132 q 844 124 846 125 q 804 103 819 103 q 778 122 786 103 q 764 211 764 151 l 764 217 l 764 222 l 742 692 q 740 714 740 707 q 740 719 740 721 l 740 743 q 753 826 740 793 q 825 904 767 865 l 847 919 l 832 942 q 756 897 792 924 q 688 836 719 871 q 668 851 676 844 q 653 861 660 857 q 383 947 518 947 l 378 947 l 371 947 q 139 846 240 942 q 38 622 38 750 q 214 335 38 444 l 114 188 q 90 153 103 169 q 67 118 78 136 q 42 39 42 76 q 43 32 42 35 l 43 25 q 89 -18 53 -18 q 125 10 122 -18 q 121 27 125 17 q 111 48 117 38 q 101 68 106 58 q 96 82 96 78 q 106 103 96 93 q 126 113 115 113 q 185 100 151 113 q 397 -22 283 60 l 631 160 q 635 108 632 131 q 642 67 638 85 q 721 -22 653 17 l 878 110 m 624 307 l 629 199 l 494 94 l 176 229 l 231 307 l 624 307 m 422 636 l 233 364 q 90 607 90 465 q 161 758 90 697 q 351 832 250 832 q 531 790 453 832 l 492 732 q 376 747 428 747 q 224 618 275 747 l 249 606 q 343 661 292 661 q 422 636 376 661 m 603 736 l 618 406 l 299 406 l 557 772 q 603 736 585 754 m 507 1032 l 725 1078 l 774 1199 l 653 1199 l 507 1032 z "},"":{"ha":874,"x_min":38,"x_max":878,"o":"m 878 110 l 856 133 q 850 128 854 132 q 844 124 846 125 q 804 103 819 103 q 778 122 786 103 q 764 211 764 151 l 764 217 l 764 222 l 742 692 q 740 714 740 707 q 740 719 740 721 l 740 743 q 753 826 740 793 q 825 904 767 865 l 847 919 l 832 942 q 756 897 792 924 q 688 836 719 871 q 668 851 676 844 q 653 861 660 857 q 383 947 518 947 l 378 947 l 371 947 q 139 846 240 942 q 38 622 38 750 q 214 335 38 444 l 114 188 q 90 153 103 169 q 67 118 78 136 q 42 39 42 76 q 43 32 42 35 l 43 25 q 89 -18 53 -18 q 125 10 122 -18 q 121 27 125 17 q 111 48 117 38 q 101 68 106 58 q 96 82 96 78 q 106 103 96 93 q 126 113 115 113 q 185 100 151 113 q 397 -22 283 60 l 631 160 q 635 108 632 131 q 642 67 638 85 q 721 -22 653 17 l 878 110 m 624 307 l 629 199 l 494 94 l 176 229 l 231 307 l 624 307 m 422 636 l 233 364 q 90 607 90 465 q 161 758 90 697 q 351 832 250 832 q 531 790 453 832 l 492 732 q 376 747 428 747 q 224 618 275 747 l 249 606 q 343 661 292 661 q 422 636 376 661 m 603 736 l 618 406 l 299 406 l 557 772 q 603 736 585 754 m 426 1019 l 457 1003 l 565 1113 l 768 1003 l 856 1093 l 625 1225 l 426 1019 z "},"":{"ha":874,"x_min":38,"x_max":890,"o":"m 878 110 l 856 133 q 850 128 854 132 q 844 124 846 125 q 804 103 819 103 q 778 122 786 103 q 764 211 764 151 l 764 217 l 764 222 l 742 692 q 740 714 740 707 q 740 719 740 721 l 740 743 q 753 826 740 793 q 825 904 767 865 l 847 919 l 832 942 q 756 897 792 924 q 688 836 719 871 q 668 851 676 844 q 653 861 660 857 q 383 947 518 947 l 378 947 l 371 947 q 139 846 240 942 q 38 622 38 750 q 214 335 38 444 l 114 188 q 90 153 103 169 q 67 118 78 136 q 42 39 42 76 q 43 32 42 35 l 43 25 q 89 -18 53 -18 q 125 10 122 -18 q 121 27 125 17 q 111 48 117 38 q 101 68 106 58 q 96 82 96 78 q 106 103 96 93 q 126 113 115 113 q 185 100 151 113 q 397 -22 283 60 l 631 160 q 635 108 632 131 q 642 67 638 85 q 721 -22 653 17 l 878 110 m 624 307 l 629 199 l 494 94 l 176 229 l 231 307 l 624 307 m 422 636 l 233 364 q 90 607 90 465 q 161 758 90 697 q 351 832 250 832 q 531 790 453 832 l 492 732 q 376 747 428 747 q 224 618 275 747 l 249 606 q 343 661 292 661 q 422 636 376 661 m 603 736 l 618 406 l 299 406 l 557 772 q 603 736 585 754 m 417 1074 l 446 1053 l 514 1107 l 697 1001 l 890 1169 l 861 1192 l 769 1111 l 585 1215 l 417 1074 z "},"":{"ha":874,"x_min":38,"x_max":878,"o":"m 878 110 l 856 133 q 850 128 854 132 q 844 124 846 125 q 804 103 819 103 q 778 122 786 103 q 764 211 764 151 l 764 217 l 764 222 l 742 692 q 740 714 740 707 q 740 719 740 721 l 740 743 q 753 826 740 793 q 825 904 767 865 l 847 919 l 832 942 q 756 897 792 924 q 688 836 719 871 q 668 851 676 844 q 653 861 660 857 q 383 947 518 947 l 378 947 l 371 947 q 139 846 240 942 q 38 622 38 750 q 214 335 38 444 l 114 188 q 90 153 103 169 q 67 118 78 136 q 42 39 42 76 q 43 32 42 35 l 43 25 q 89 -18 53 -18 q 125 10 122 -18 q 121 27 125 17 q 111 48 117 38 q 101 68 106 58 q 96 82 96 78 q 106 103 96 93 q 126 113 115 113 q 185 100 151 113 q 397 -22 283 60 l 631 160 q 635 108 632 131 q 642 67 638 85 q 721 -22 653 17 l 878 110 m 624 307 l 629 199 l 494 94 l 176 229 l 231 307 l 624 307 m 422 636 l 233 364 q 90 607 90 465 q 161 758 90 697 q 351 832 250 832 q 531 790 453 832 l 492 732 q 376 747 428 747 q 224 618 275 747 l 249 606 q 343 661 292 661 q 422 636 376 661 m 603 736 l 618 406 l 299 406 l 557 772 q 603 736 585 754 m 428 1108 l 515 1021 l 601 1108 l 515 1196 l 428 1108 m 685 1108 l 772 1021 l 858 1108 l 772 1196 l 685 1108 z "},"":{"ha":874,"x_min":38,"x_max":878,"o":"m 878 110 l 856 133 q 850 128 854 132 q 844 124 846 125 q 804 103 819 103 q 778 122 786 103 q 764 211 764 151 l 764 217 l 764 222 l 742 692 q 740 714 740 707 q 740 719 740 721 l 740 743 q 753 826 740 793 q 825 904 767 865 l 847 919 l 832 942 q 756 897 792 924 q 688 836 719 871 q 668 851 676 844 q 653 861 660 857 q 383 947 518 947 l 378 947 l 371 947 q 139 846 240 942 q 38 622 38 750 q 214 335 38 444 l 114 188 q 90 153 103 169 q 67 118 78 136 q 42 39 42 76 q 43 32 42 35 l 43 25 q 89 -18 53 -18 q 125 10 122 -18 q 121 27 125 17 q 111 48 117 38 q 101 68 106 58 q 96 82 96 78 q 106 103 96 93 q 126 113 115 113 q 185 100 151 113 q 397 -22 283 60 l 631 160 q 635 108 632 131 q 642 67 638 85 q 721 -22 653 17 l 878 110 m 624 307 l 629 199 l 494 94 l 176 229 l 231 307 l 624 307 m 422 636 l 233 364 q 90 607 90 465 q 161 758 90 697 q 351 832 250 832 q 531 790 453 832 l 492 732 q 376 747 428 747 q 224 618 275 747 l 249 606 q 343 661 292 661 q 422 636 376 661 m 603 736 l 618 406 l 299 406 l 557 772 q 603 736 585 754 m 649 967 l 649 965 q 732 1026 686 965 q 778 1128 778 1086 q 649 1274 778 1233 l 643 1271 q 519 1113 519 1208 q 649 967 519 1006 m 690 1025 l 690 1024 q 667 1032 672 1028 q 571 1140 571 1071 q 574 1158 571 1147 q 604 1215 582 1193 q 685 1175 644 1215 q 725 1093 725 1135 q 690 1025 725 1051 z "},"":{"ha":1271,"x_min":38,"x_max":1261,"o":"m 1261 135 l 1243 154 l 1182 96 q 1007 160 1076 160 q 849 132 936 160 l 849 463 q 972 422 914 422 q 1182 553 1118 422 l 1163 569 q 1063 526 1114 526 q 924 589 986 526 l 849 526 l 849 814 l 899 846 q 1060 763 971 763 l 1064 763 l 1068 763 q 1251 871 1194 764 l 1236 885 q 1157 864 1196 864 q 988 946 1046 864 l 754 786 q 413 943 593 943 q 164 843 269 943 q 58 604 58 746 q 103 449 58 514 q 225 338 144 390 l 124 199 q 96 160 110 179 q 67 122 82 142 q 38 33 38 74 l 38 26 q 81 -15 43 -12 q 119 21 119 -17 q 107 54 119 29 l 107 56 q 106 57 106 56 q 94 86 94 76 q 122 114 94 110 l 125 114 l 126 114 q 181 99 146 114 q 388 -35 281 50 l 631 140 l 631 58 q 600 33 617 47 q 561 0 583 19 l 576 -17 q 811 47 688 47 q 1088 -22 961 47 l 1261 135 m 631 290 l 631 179 l 494 78 l 181 231 l 239 308 l 631 290 m 821 796 l 821 118 q 793 105 811 114 q 765 92 775 96 l 765 758 l 821 796 m 442 629 l 244 363 q 113 597 113 461 q 196 771 113 706 q 383 831 272 831 q 554 776 460 831 l 513 718 q 399 746 453 746 q 250 617 293 746 l 265 606 q 358 657 317 657 q 442 629 394 657 m 631 717 l 631 388 l 310 401 l 579 757 q 606 738 593 747 q 631 717 618 728 z "},"":{"ha":857,"x_min":32,"x_max":857,"o":"m 499 -12 l 504 -11 q 857 233 721 14 l 842 249 q 504 124 681 121 l 504 819 q 708 751 613 767 l 835 869 q 540 944 683 869 l 269 714 l 269 417 q 264 338 269 358 q 218 274 254 299 q 143 519 143 383 q 335 857 143 692 l 322 869 q 202 790 254 835 q 111 688 150 744 q 32 424 32 568 q 144 124 32 250 q 431 -12 258 -3 l 286 -135 l 292 -137 q 382 -253 382 -183 q 358 -319 382 -281 q 356 -325 358 -322 l 364 -332 q 463 -200 463 -283 q 411 -108 463 -160 l 399 -96 l 499 -12 m 474 838 l 474 125 q 236 249 329 140 q 349 347 336 332 q 397 447 388 390 q 406 561 406 486 l 406 775 l 474 838 z "},"":{"ha":881,"x_min":33,"x_max":863,"o":"m 507 539 l 732 532 l 806 660 l 646 664 l 842 861 l 833 881 q 829 879 831 881 l 824 879 l 814 879 q 689 896 749 879 q 546 954 601 919 l 274 738 l 274 415 q 273 388 274 400 q 271 365 272 375 q 222 290 264 328 q 146 551 146 404 q 344 871 146 731 l 332 892 q 115 715 185 813 q 33 451 33 604 q 160 129 33 261 q 474 -3 288 -3 q 700 64 593 -3 q 863 239 797 128 l 853 250 q 507 131 686 128 l 507 539 m 478 850 l 478 132 q 240 268 331 154 q 354 365 350 361 q 406 507 406 422 l 406 790 l 478 850 m 507 565 l 507 833 q 704 764 597 781 l 507 565 m 574 1029 l 428 1196 l 307 1196 l 356 1075 l 574 1029 z "},"":{"ha":881,"x_min":33,"x_max":863,"o":"m 507 539 l 732 532 l 806 660 l 646 664 l 842 861 l 833 881 q 829 879 831 881 l 824 879 l 814 879 q 689 896 749 879 q 546 954 601 919 l 274 738 l 274 415 q 273 388 274 400 q 271 365 272 375 q 222 290 264 328 q 146 551 146 404 q 344 871 146 731 l 332 892 q 115 715 185 813 q 33 451 33 604 q 160 129 33 261 q 474 -3 288 -3 q 700 64 593 -3 q 863 239 797 128 l 853 250 q 507 131 686 128 l 507 539 m 478 850 l 478 132 q 240 268 331 154 q 354 365 350 361 q 406 507 406 422 l 406 790 l 478 850 m 507 565 l 507 833 q 704 764 597 781 l 507 565 m 307 1029 l 525 1075 l 574 1196 l 453 1196 l 307 1029 z "},"":{"ha":881,"x_min":33,"x_max":863,"o":"m 507 539 l 732 532 l 806 660 l 646 664 l 842 861 l 833 881 q 829 879 831 881 l 824 879 l 814 879 q 689 896 749 879 q 546 954 601 919 l 274 738 l 274 415 q 273 388 274 400 q 271 365 272 375 q 222 290 264 328 q 146 551 146 404 q 344 871 146 731 l 332 892 q 115 715 185 813 q 33 451 33 604 q 160 129 33 261 q 474 -3 288 -3 q 700 64 593 -3 q 863 239 797 128 l 853 250 q 507 131 686 128 l 507 539 m 478 850 l 478 132 q 240 268 331 154 q 354 365 350 361 q 406 507 406 422 l 406 790 l 478 850 m 507 565 l 507 833 q 704 764 597 781 l 507 565 m 226 1003 l 257 986 l 365 1096 l 568 986 l 656 1076 l 425 1208 l 226 1003 z "},"":{"ha":881,"x_min":33,"x_max":863,"o":"m 507 539 l 732 532 l 806 660 l 646 664 l 842 861 l 833 881 q 829 879 831 881 l 824 879 l 814 879 q 689 896 749 879 q 546 954 601 919 l 274 738 l 274 415 q 273 388 274 400 q 271 365 272 375 q 222 290 264 328 q 146 551 146 404 q 344 871 146 731 l 332 892 q 115 715 185 813 q 33 451 33 604 q 160 129 33 261 q 474 -3 288 -3 q 700 64 593 -3 q 863 239 797 128 l 853 250 q 507 131 686 128 l 507 539 m 478 850 l 478 132 q 240 268 331 154 q 354 365 350 361 q 406 507 406 422 l 406 790 l 478 850 m 507 565 l 507 833 q 704 764 597 781 l 507 565 m 225 1093 l 313 1006 l 399 1093 l 313 1181 l 225 1093 m 482 1093 l 569 1006 l 656 1093 l 569 1181 l 482 1093 z "},"":{"ha":719,"x_min":-18,"x_max":725,"o":"m -1 -12 l 0 -12 q 100 58 39 58 q 253 21 153 58 q 410 -17 354 -17 q 581 63 515 -17 q 644 246 633 131 q 647 273 646 261 q 647 292 647 285 q 641 394 647 335 q 624 531 635 453 q 599 768 599 694 q 704 906 599 879 l 725 911 l 711 933 q 489 636 489 900 q 495 536 489 596 q 513 396 501 476 q 530 255 524 315 q 536 154 536 194 q 508 64 536 100 q 428 28 481 28 q 318 89 388 28 q 285 118 299 107 q 261 135 271 129 q 383 172 343 143 q 431 286 431 207 q 426 364 431 318 q 415 472 422 410 q 404 581 408 535 q 400 660 400 628 q 522 924 400 818 l 510 938 q 410 914 460 914 q 314 928 375 914 q 217 943 249 943 q 108 899 153 943 q 56 789 63 856 l 71 785 q 169 856 104 856 q 185 855 176 856 q 200 853 193 854 q 259 842 236 846 q 289 839 282 839 q 404 867 324 839 q 414 871 413 869 q 278 560 285 746 q 260 563 265 563 q 249 565 254 564 l 238 565 q 83 456 143 565 l 96 446 q 190 486 140 486 q 272 446 244 486 q 318 286 318 376 q 282 182 318 201 q 164 154 242 161 q -18 -7 28 142 l -1 -12 m 493 1029 l 347 1196 l 226 1196 l 275 1075 l 493 1029 z "},"":{"ha":719,"x_min":-18,"x_max":725,"o":"m -1 -12 l 0 -12 q 100 58 39 58 q 253 21 153 58 q 410 -17 354 -17 q 581 63 515 -17 q 644 246 633 131 q 647 273 646 261 q 647 292 647 285 q 641 394 647 335 q 624 531 635 453 q 599 768 599 694 q 704 906 599 879 l 725 911 l 711 933 q 489 636 489 900 q 495 536 489 596 q 513 396 501 476 q 530 255 524 315 q 536 154 536 194 q 508 64 536 100 q 428 28 481 28 q 318 89 388 28 q 285 118 299 107 q 261 135 271 129 q 383 172 343 143 q 431 286 431 207 q 426 364 431 318 q 415 472 422 410 q 404 581 408 535 q 400 660 400 628 q 522 924 400 818 l 510 938 q 410 914 460 914 q 314 928 375 914 q 217 943 249 943 q 108 899 153 943 q 56 789 63 856 l 71 785 q 169 856 104 856 q 185 855 176 856 q 200 853 193 854 q 259 842 236 846 q 289 839 282 839 q 404 867 324 839 q 414 871 413 869 q 278 560 285 746 q 260 563 265 563 q 249 565 254 564 l 238 565 q 83 456 143 565 l 96 446 q 190 486 140 486 q 272 446 244 486 q 318 286 318 376 q 282 182 318 201 q 164 154 242 161 q -18 -7 28 142 l -1 -12 m 226 1029 l 444 1075 l 493 1196 l 372 1196 l 226 1029 z "},"":{"ha":719,"x_min":-18,"x_max":725,"o":"m -1 -12 l 0 -12 q 100 58 39 58 q 253 21 153 58 q 410 -17 354 -17 q 581 63 515 -17 q 644 246 633 131 q 647 273 646 261 q 647 292 647 285 q 641 394 647 335 q 624 531 635 453 q 599 768 599 694 q 704 906 599 879 l 725 911 l 711 933 q 489 636 489 900 q 495 536 489 596 q 513 396 501 476 q 530 255 524 315 q 536 154 536 194 q 508 64 536 100 q 428 28 481 28 q 318 89 388 28 q 285 118 299 107 q 261 135 271 129 q 383 172 343 143 q 431 286 431 207 q 426 364 431 318 q 415 472 422 410 q 404 581 408 535 q 400 660 400 628 q 522 924 400 818 l 510 938 q 410 914 460 914 q 314 928 375 914 q 217 943 249 943 q 108 899 153 943 q 56 789 63 856 l 71 785 q 169 856 104 856 q 185 855 176 856 q 200 853 193 854 q 259 842 236 846 q 289 839 282 839 q 404 867 324 839 q 414 871 413 869 q 278 560 285 746 q 260 563 265 563 q 249 565 254 564 l 238 565 q 83 456 143 565 l 96 446 q 190 486 140 486 q 272 446 244 486 q 318 286 318 376 q 282 182 318 201 q 164 154 242 161 q -18 -7 28 142 l -1 -12 m 146 1003 l 176 986 l 285 1096 l 488 986 l 575 1076 l 344 1208 l 146 1003 z "},"":{"ha":719,"x_min":-18,"x_max":725,"o":"m -1 -12 l 0 -12 q 100 58 39 58 q 253 21 153 58 q 410 -17 354 -17 q 581 63 515 -17 q 644 246 633 131 q 647 273 646 261 q 647 292 647 285 q 641 394 647 335 q 624 531 635 453 q 599 768 599 694 q 704 906 599 879 l 725 911 l 711 933 q 489 636 489 900 q 495 536 489 596 q 513 396 501 476 q 530 255 524 315 q 536 154 536 194 q 508 64 536 100 q 428 28 481 28 q 318 89 388 28 q 285 118 299 107 q 261 135 271 129 q 383 172 343 143 q 431 286 431 207 q 426 364 431 318 q 415 472 422 410 q 404 581 408 535 q 400 660 400 628 q 522 924 400 818 l 510 938 q 410 914 460 914 q 314 928 375 914 q 217 943 249 943 q 108 899 153 943 q 56 789 63 856 l 71 785 q 169 856 104 856 q 185 855 176 856 q 200 853 193 854 q 259 842 236 846 q 289 839 282 839 q 404 867 324 839 q 414 871 413 869 q 278 560 285 746 q 260 563 265 563 q 249 565 254 564 l 238 565 q 83 456 143 565 l 96 446 q 190 486 140 486 q 272 446 244 486 q 318 286 318 376 q 282 182 318 201 q 164 154 242 161 q -18 -7 28 142 l -1 -12 m 144 1093 l 232 1006 l 318 1093 l 232 1181 l 144 1093 m 401 1093 l 489 1006 l 575 1093 l 489 1181 l 401 1093 z "},"":{"ha":1096,"x_min":-119,"x_max":1096,"o":"m 1096 186 l 1064 199 l 1018 121 l 999 124 q 980 126 989 125 q 961 126 971 126 l 942 126 q 778 103 849 126 q 788 117 785 113 q 793 125 792 122 l 890 256 q 986 422 944 328 q 1018 517 1008 469 q 1026 611 1028 564 q 918 832 1022 749 q 689 944 814 915 l 271 740 l 271 606 q 154 640 206 640 q 36 581 83 640 l 50 563 q 121 585 86 585 q 228 536 188 585 q 271 424 264 493 q 154 471 215 471 q 36 414 90 471 l 50 393 q 124 411 82 411 q 285 276 251 411 q 193 304 226 304 q 83 239 132 304 l 100 221 q 175 249 143 249 q 226 239 201 249 q 268 212 250 229 q 297 171 286 194 q 308 121 308 147 q 284 51 308 78 q 218 24 260 24 q 144 36 194 24 q 87 44 108 42 q 58 47 65 46 l 56 47 l 50 47 q -119 -62 -44 47 l -101 -78 q 6 -46 -40 -46 q 119 -67 44 -46 q 235 -89 192 -89 q 449 18 374 -89 q 496 219 496 86 l 496 350 q 654 403 560 390 q 665 404 658 404 l 675 404 q 750 394 717 404 q 857 344 814 375 q 815 258 843 311 q 743 132 786 206 q 636 -83 665 -3 l 668 -94 q 851 15 728 15 q 981 -14 914 15 l 1096 186 m 468 789 l 468 247 l 468 246 l 468 243 q 444 82 468 133 q 314 3 411 8 q 393 104 374 38 q 406 238 406 146 l 406 761 l 436 775 q 451 782 443 778 q 468 789 460 786 m 496 389 l 496 560 q 679 510 596 510 q 897 582 788 510 q 898 570 897 576 q 900 557 899 564 q 901 544 900 550 l 901 532 q 868 374 901 463 q 669 435 778 435 q 496 389 601 435 m 496 600 l 496 797 q 511 800 507 800 q 601 813 554 813 q 778 760 701 813 q 889 615 856 708 q 679 542 778 542 q 496 600 583 542 m 415 1063 l 444 1042 l 513 1096 l 696 990 l 889 1158 l 860 1181 l 768 1100 l 583 1204 l 415 1063 z "},"":{"ha":1015,"x_min":32,"x_max":982,"o":"m 93 674 l 93 672 q 32 399 32 518 q 144 107 32 225 q 429 -12 260 -12 q 750 122 589 -12 q 958 406 901 249 q 982 526 982 472 q 854 804 982 689 q 571 939 744 903 q 544 944 549 944 l 93 674 m 474 821 l 474 90 q 247 201 343 106 q 364 310 340 274 q 403 467 403 365 l 403 824 q 438 823 421 824 q 474 821 456 822 m 504 92 l 504 344 q 657 417 567 417 q 821 335 751 417 q 701 161 785 228 q 504 92 611 90 m 274 744 l 274 379 q 268 296 274 317 q 226 225 257 256 q 139 478 139 347 q 274 744 139 643 m 504 388 l 504 596 q 664 535 582 535 q 829 596 744 535 q 849 493 849 535 l 849 472 q 847 460 847 465 q 847 451 847 454 q 840 404 844 425 q 832 368 836 383 q 657 447 746 447 q 504 388 576 447 m 504 628 l 504 817 q 818 626 735 783 q 663 563 750 563 q 504 628 581 563 m 640 1028 l 494 1194 l 374 1194 l 422 1074 l 640 1028 z "},"":{"ha":1015,"x_min":32,"x_max":982,"o":"m 93 674 l 93 672 q 32 399 32 518 q 144 107 32 225 q 429 -12 260 -12 q 750 122 589 -12 q 958 406 901 249 q 982 526 982 472 q 854 804 982 689 q 571 939 744 903 q 544 944 549 944 l 93 674 m 474 821 l 474 90 q 247 201 343 106 q 364 310 340 274 q 403 467 403 365 l 403 824 q 438 823 421 824 q 474 821 456 822 m 504 92 l 504 344 q 657 417 567 417 q 821 335 751 417 q 701 161 785 228 q 504 92 611 90 m 274 744 l 274 379 q 268 296 274 317 q 226 225 257 256 q 139 478 139 347 q 274 744 139 643 m 504 388 l 504 596 q 664 535 582 535 q 829 596 744 535 q 849 493 849 535 l 849 472 q 847 460 847 465 q 847 451 847 454 q 840 404 844 425 q 832 368 836 383 q 657 447 746 447 q 504 388 576 447 m 504 628 l 504 817 q 818 626 735 783 q 663 563 750 563 q 504 628 581 563 m 374 1028 l 592 1074 l 640 1194 l 519 1194 l 374 1028 z "},"":{"ha":1015,"x_min":32,"x_max":982,"o":"m 93 674 l 93 672 q 32 399 32 518 q 144 107 32 225 q 429 -12 260 -12 q 750 122 589 -12 q 958 406 901 249 q 982 526 982 472 q 854 804 982 689 q 571 939 744 903 q 544 944 549 944 l 93 674 m 474 821 l 474 90 q 247 201 343 106 q 364 310 340 274 q 403 467 403 365 l 403 824 q 438 823 421 824 q 474 821 456 822 m 504 92 l 504 344 q 657 417 567 417 q 821 335 751 417 q 701 161 785 228 q 504 92 611 90 m 274 744 l 274 379 q 268 296 274 317 q 226 225 257 256 q 139 478 139 347 q 274 744 139 643 m 504 388 l 504 596 q 664 535 582 535 q 829 596 744 535 q 849 493 849 535 l 849 472 q 847 460 847 465 q 847 451 847 454 q 840 404 844 425 q 832 368 836 383 q 657 447 746 447 q 504 388 576 447 m 504 628 l 504 817 q 818 626 735 783 q 663 563 750 563 q 504 628 581 563 m 293 1003 l 324 986 l 432 1096 l 635 986 l 722 1076 l 492 1208 l 293 1003 z "},"":{"ha":1015,"x_min":32,"x_max":982,"o":"m 93 674 l 93 672 q 32 399 32 518 q 144 107 32 225 q 429 -12 260 -12 q 750 122 589 -12 q 958 406 901 249 q 982 526 982 472 q 854 804 982 689 q 571 939 744 903 q 544 944 549 944 l 93 674 m 474 821 l 474 90 q 247 201 343 106 q 364 310 340 274 q 403 467 403 365 l 403 824 q 438 823 421 824 q 474 821 456 822 m 504 92 l 504 344 q 657 417 567 417 q 821 335 751 417 q 701 161 785 228 q 504 92 611 90 m 274 744 l 274 379 q 268 296 274 317 q 226 225 257 256 q 139 478 139 347 q 274 744 139 643 m 504 388 l 504 596 q 664 535 582 535 q 829 596 744 535 q 849 493 849 535 l 849 472 q 847 460 847 465 q 847 451 847 454 q 840 404 844 425 q 832 368 836 383 q 657 447 746 447 q 504 388 576 447 m 504 628 l 504 817 q 818 626 735 783 q 663 563 750 563 q 504 628 581 563 m 271 1057 l 300 1036 l 368 1090 l 551 985 l 744 1153 l 715 1175 l 624 1094 l 439 1199 l 271 1057 z "},"":{"ha":1015,"x_min":32,"x_max":982,"o":"m 93 674 l 93 672 q 32 399 32 518 q 144 107 32 225 q 429 -12 260 -12 q 750 122 589 -12 q 958 406 901 249 q 982 526 982 472 q 854 804 982 689 q 571 939 744 903 q 544 944 549 944 l 93 674 m 474 821 l 474 90 q 247 201 343 106 q 364 310 340 274 q 403 467 403 365 l 403 824 q 438 823 421 824 q 474 821 456 822 m 504 92 l 504 344 q 657 417 567 417 q 821 335 751 417 q 701 161 785 228 q 504 92 611 90 m 274 744 l 274 379 q 268 296 274 317 q 226 225 257 256 q 139 478 139 347 q 274 744 139 643 m 504 388 l 504 596 q 664 535 582 535 q 829 596 744 535 q 849 493 849 535 l 849 472 q 847 460 847 465 q 847 451 847 454 q 840 404 844 425 q 832 368 836 383 q 657 447 746 447 q 504 388 576 447 m 504 628 l 504 817 q 818 626 735 783 q 663 563 750 563 q 504 628 581 563 m 310 1092 l 397 1004 l 483 1092 l 397 1179 l 310 1092 m 567 1092 l 654 1004 l 740 1092 l 654 1179 l 567 1092 z "},"":{"ha":694,"x_min":93,"x_max":600,"o":"m 93 281 l 144 229 l 346 429 l 538 236 l 592 290 l 399 483 l 600 685 l 549 736 l 347 535 l 156 726 l 101 672 l 293 481 l 93 281 z "},"":{"ha":1018,"x_min":32,"x_max":986,"o":"m 93 672 l 93 671 q 32 399 32 508 q 140 110 32 235 l 42 -11 l 86 -36 l 179 75 q 419 -12 301 -12 q 757 128 585 -12 q 971 426 921 263 q 986 526 986 479 q 804 849 986 715 l 897 965 l 854 990 l 761 875 q 546 944 664 924 l 93 672 m 507 90 l 507 344 q 660 417 575 417 q 824 333 750 417 q 703 161 781 226 q 507 90 615 88 m 472 821 l 472 90 q 354 126 426 90 q 249 201 283 163 q 276 222 263 211 q 301 244 289 233 q 396 364 375 314 q 406 446 406 397 l 406 825 q 472 821 449 822 m 274 746 l 274 367 q 225 226 274 264 q 139 483 139 350 q 274 746 139 642 m 507 388 l 507 594 q 664 535 597 535 q 832 594 747 535 q 851 472 853 536 q 846 427 850 453 q 832 368 842 401 q 658 447 753 447 q 507 388 585 447 m 507 629 l 507 815 q 686 756 594 810 q 819 625 781 701 q 663 563 750 563 q 507 629 590 563 z "},"":{"ha":1022,"x_min":0,"x_max":1017,"o":"m 1017 86 l 999 111 q 961 99 979 99 q 933 114 942 99 q 919 186 919 138 l 919 675 q 965 847 919 790 q 988 872 978 861 q 1004 889 997 882 l 979 910 l 914 842 l 783 939 l 629 778 l 650 757 l 722 831 l 783 782 l 783 585 q 694 557 749 563 l 675 557 q 565 601 611 564 l 565 960 l 546 958 q 506 926 529 938 q 415 908 468 908 q 285 938 374 908 q 157 965 193 967 q 44 903 79 961 q 0 714 0 825 l 0 704 q 1 694 0 697 l 29 693 q 138 847 29 847 q 158 847 149 847 q 179 846 168 847 q 263 838 232 840 q 304 835 293 835 l 326 835 q 356 838 344 838 q 371 840 367 839 q 142 647 210 733 q 49 369 49 529 q 149 103 49 213 q 404 -12 251 -12 q 564 11 493 -12 q 781 147 665 46 q 803 43 782 83 q 878 -29 825 0 l 1017 86 m 535 883 l 535 90 l 517 90 q 508 89 514 89 l 490 89 l 482 89 q 307 147 378 94 q 429 246 375 188 q 478 389 478 299 l 478 731 q 535 883 478 822 m 565 96 l 565 375 q 667 407 617 407 q 783 374 718 407 l 783 197 q 565 96 668 107 m 278 175 l 278 174 q 181 435 181 279 q 264 689 181 574 q 471 861 342 793 q 413 786 435 815 q 383 746 390 757 q 343 606 343 678 l 343 358 q 278 175 343 224 m 565 413 l 565 563 q 654 529 607 535 q 665 528 658 528 l 674 528 q 783 551 739 528 l 783 407 q 667 438 726 438 q 565 413 625 438 m 643 1028 l 497 1194 l 376 1194 l 425 1074 l 643 1028 z "},"":{"ha":1022,"x_min":0,"x_max":1017,"o":"m 1017 86 l 999 111 q 961 99 979 99 q 933 114 942 99 q 919 186 919 138 l 919 675 q 965 847 919 790 q 988 872 978 861 q 1004 889 997 882 l 979 910 l 914 842 l 783 939 l 629 778 l 650 757 l 722 831 l 783 782 l 783 585 q 694 557 749 563 l 675 557 q 565 601 611 564 l 565 960 l 546 958 q 506 926 529 938 q 415 908 468 908 q 285 938 374 908 q 157 965 193 967 q 44 903 79 961 q 0 714 0 825 l 0 704 q 1 694 0 697 l 29 693 q 138 847 29 847 q 158 847 149 847 q 179 846 168 847 q 263 838 232 840 q 304 835 293 835 l 326 835 q 356 838 344 838 q 371 840 367 839 q 142 647 210 733 q 49 369 49 529 q 149 103 49 213 q 404 -12 251 -12 q 564 11 493 -12 q 781 147 665 46 q 803 43 782 83 q 878 -29 825 0 l 1017 86 m 535 883 l 535 90 l 517 90 q 508 89 514 89 l 490 89 l 482 89 q 307 147 378 94 q 429 246 375 188 q 478 389 478 299 l 478 731 q 535 883 478 822 m 565 96 l 565 375 q 667 407 617 407 q 783 374 718 407 l 783 197 q 565 96 668 107 m 278 175 l 278 174 q 181 435 181 279 q 264 689 181 574 q 471 861 342 793 q 413 786 435 815 q 383 746 390 757 q 343 606 343 678 l 343 358 q 278 175 343 224 m 565 413 l 565 563 q 654 529 607 535 q 665 528 658 528 l 674 528 q 783 551 739 528 l 783 407 q 667 438 726 438 q 565 413 625 438 m 376 1028 l 594 1074 l 643 1194 l 522 1194 l 376 1028 z "},"":{"ha":1022,"x_min":0,"x_max":1017,"o":"m 1017 86 l 999 111 q 961 99 979 99 q 933 114 942 99 q 919 186 919 138 l 919 675 q 965 847 919 790 q 988 872 978 861 q 1004 889 997 882 l 979 910 l 914 842 l 783 939 l 629 778 l 650 757 l 722 831 l 783 782 l 783 585 q 694 557 749 563 l 675 557 q 565 601 611 564 l 565 960 l 546 958 q 506 926 529 938 q 415 908 468 908 q 285 938 374 908 q 157 965 193 967 q 44 903 79 961 q 0 714 0 825 l 0 704 q 1 694 0 697 l 29 693 q 138 847 29 847 q 158 847 149 847 q 179 846 168 847 q 263 838 232 840 q 304 835 293 835 l 326 835 q 356 838 344 838 q 371 840 367 839 q 142 647 210 733 q 49 369 49 529 q 149 103 49 213 q 404 -12 251 -12 q 564 11 493 -12 q 781 147 665 46 q 803 43 782 83 q 878 -29 825 0 l 1017 86 m 535 883 l 535 90 l 517 90 q 508 89 514 89 l 490 89 l 482 89 q 307 147 378 94 q 429 246 375 188 q 478 389 478 299 l 478 731 q 535 883 478 822 m 565 96 l 565 375 q 667 407 617 407 q 783 374 718 407 l 783 197 q 565 96 668 107 m 278 175 l 278 174 q 181 435 181 279 q 264 689 181 574 q 471 861 342 793 q 413 786 435 815 q 383 746 390 757 q 343 606 343 678 l 343 358 q 278 175 343 224 m 565 413 l 565 563 q 654 529 607 535 q 665 528 658 528 l 674 528 q 783 551 739 528 l 783 407 q 667 438 726 438 q 565 413 625 438 m 296 1003 l 326 986 l 435 1096 l 638 986 l 725 1076 l 494 1208 l 296 1003 z "},"":{"ha":1022,"x_min":0,"x_max":1017,"o":"m 1017 86 l 999 111 q 961 99 979 99 q 933 114 942 99 q 919 186 919 138 l 919 675 q 965 847 919 790 q 988 872 978 861 q 1004 889 997 882 l 979 910 l 914 842 l 783 939 l 629 778 l 650 757 l 722 831 l 783 782 l 783 585 q 694 557 749 563 l 675 557 q 565 601 611 564 l 565 960 l 546 958 q 506 926 529 938 q 415 908 468 908 q 285 938 374 908 q 157 965 193 967 q 44 903 79 961 q 0 714 0 825 l 0 704 q 1 694 0 697 l 29 693 q 138 847 29 847 q 158 847 149 847 q 179 846 168 847 q 263 838 232 840 q 304 835 293 835 l 326 835 q 356 838 344 838 q 371 840 367 839 q 142 647 210 733 q 49 369 49 529 q 149 103 49 213 q 404 -12 251 -12 q 564 11 493 -12 q 781 147 665 46 q 803 43 782 83 q 878 -29 825 0 l 1017 86 m 535 883 l 535 90 l 517 90 q 508 89 514 89 l 490 89 l 482 89 q 307 147 378 94 q 429 246 375 188 q 478 389 478 299 l 478 731 q 535 883 478 822 m 565 96 l 565 375 q 667 407 617 407 q 783 374 718 407 l 783 197 q 565 96 668 107 m 278 175 l 278 174 q 181 435 181 279 q 264 689 181 574 q 471 861 342 793 q 413 786 435 815 q 383 746 390 757 q 343 606 343 678 l 343 358 q 278 175 343 224 m 565 413 l 565 563 q 654 529 607 535 q 665 528 658 528 l 674 528 q 783 551 739 528 l 783 407 q 667 438 726 438 q 565 413 625 438 m 329 1092 l 417 1004 l 503 1092 l 417 1179 l 329 1092 m 586 1092 l 674 1004 l 760 1092 l 674 1179 l 586 1092 z "},"":{"ha":932,"x_min":-1,"x_max":900,"o":"m 42 868 l 42 867 q 92 882 68 882 q 218 732 201 882 q 220 703 219 719 q 221 665 221 686 l 221 614 q 100 657 161 657 q 29 638 71 657 l 35 614 l 40 614 q 46 615 44 614 l 56 615 q 183 553 139 615 q 221 410 219 499 l 221 406 l 221 401 q 85 454 151 454 q 72 454 78 454 q 60 453 67 454 l 35 450 l 35 431 q 176 347 128 422 q 221 183 218 285 l 221 182 l 221 179 q 68 132 129 179 q 0 -6 -1 79 q 68 -142 0 -87 q 217 -189 135 -190 q 406 -122 288 -186 q 567 -58 524 -58 l 572 -58 q 576 -60 575 -58 q 596 -76 596 -62 q 590 -90 596 -89 q 572 -140 572 -118 q 589 -185 572 -167 q 632 -203 606 -203 q 693 -135 693 -203 q 632 -42 693 -78 q 518 -12 582 -12 q 336 -58 454 -12 q 161 -104 217 -104 q 70 -72 108 -104 q 32 11 32 -39 q 75 100 32 67 q 219 149 140 149 q 278 148 243 149 q 363 146 314 147 q 446 144 411 144 q 506 144 482 144 q 900 583 900 144 l 900 588 l 900 592 q 826 804 899 714 q 629 900 749 900 q 483 864 563 900 q 431 837 464 856 q 350 790 397 818 q 165 943 322 943 q 26 890 92 943 l 42 868 m 350 181 l 350 750 l 413 788 l 413 181 l 350 181 m 443 181 l 443 376 q 581 433 517 433 q 747 368 669 433 q 443 181 685 178 m 443 414 l 443 603 q 596 547 508 547 q 754 610 672 547 q 764 501 764 575 q 754 403 764 456 q 585 464 678 464 q 443 414 515 464 m 443 644 l 443 801 q 543 828 497 828 q 675 771 618 828 q 744 643 725 719 q 592 576 679 576 q 443 644 517 576 m 338 1028 l 556 1074 l 604 1194 l 483 1194 l 338 1028 z "},"":{"ha":597,"x_min":44,"x_max":590,"o":"m 274 76 l 222 132 l 222 800 q 328 708 278 749 q 422 636 378 668 l 232 419 l 247 401 q 343 433 304 433 q 413 401 386 433 q 439 325 439 368 q 354 154 439 249 q 347 144 353 150 l 339 136 q 271 0 271 56 q 280 -40 271 -21 q 304 -73 289 -58 q 339 -96 319 -87 q 379 -104 358 -104 l 386 -104 q 392 -103 390 -104 q 425 -74 425 -99 q 400 -54 425 -54 q 385 -58 393 -56 l 383 -60 l 381 -60 q 361 -64 368 -64 q 307 -3 307 -64 q 406 129 307 54 q 431 147 421 139 q 449 160 442 154 q 590 358 590 261 l 590 361 l 590 363 q 542 483 588 433 q 429 538 496 538 q 401 537 415 538 q 371 535 386 536 l 540 728 l 532 740 l 524 740 q 519 739 522 739 l 514 739 q 476 750 496 739 q 414 797 439 772 l 274 913 q 240 888 258 901 q 200 858 221 874 q 133 815 161 835 q 88 781 106 796 l 88 186 q 44 94 88 111 l 44 64 q 156 -17 106 38 l 274 76 z "},"":{"ha":567,"x_min":46,"x_max":565,"o":"m 565 99 l 551 115 q 546 113 549 113 l 544 111 l 542 108 q 508 97 517 97 q 474 151 475 101 l 474 163 l 474 438 q 474 474 474 457 q 475 506 474 490 q 524 643 476 571 l 506 654 q 443 624 474 624 q 269 678 374 624 q 261 682 264 681 q 256 685 258 683 q 86 626 186 626 l 71 626 q 68 628 69 626 l 61 628 q 57 629 57 628 l 176 415 l 157 393 q 46 156 46 269 q 153 -17 46 65 l 336 131 q 388 11 344 58 q 405 -5 397 1 q 418 -17 413 -11 l 565 99 m 261 365 l 336 333 l 336 165 l 247 92 q 161 243 161 171 q 178 354 161 285 q 192 396 188 396 l 261 365 m 336 526 l 336 361 l 204 418 l 101 604 l 336 526 m 421 796 l 275 963 l 154 963 l 203 842 l 421 796 z "},"":{"ha":567,"x_min":46,"x_max":565,"o":"m 565 99 l 551 115 q 546 113 549 113 l 544 111 l 542 108 q 508 97 517 97 q 474 151 475 101 l 474 163 l 474 438 q 474 474 474 457 q 475 506 474 490 q 524 643 476 571 l 506 654 q 443 624 474 624 q 269 678 374 624 q 261 682 264 681 q 256 685 258 683 q 86 626 186 626 l 71 626 q 68 628 69 626 l 61 628 q 57 629 57 628 l 176 415 l 157 393 q 46 156 46 269 q 153 -17 46 65 l 336 131 q 388 11 344 58 q 405 -5 397 1 q 418 -17 413 -11 l 565 99 m 261 365 l 336 333 l 336 165 l 247 92 q 161 243 161 171 q 178 354 161 285 q 192 396 188 396 l 261 365 m 336 526 l 336 361 l 204 418 l 101 604 l 336 526 m 154 796 l 372 842 l 421 963 l 300 963 l 154 796 z "},"":{"ha":567,"x_min":46,"x_max":565,"o":"m 565 99 l 551 115 q 546 113 549 113 l 544 111 l 542 108 q 508 97 517 97 q 474 151 475 101 l 474 163 l 474 438 q 474 474 474 457 q 475 506 474 490 q 524 643 476 571 l 506 654 q 443 624 474 624 q 269 678 374 624 q 261 682 264 681 q 256 685 258 683 q 86 626 186 626 l 71 626 q 68 628 69 626 l 61 628 q 57 629 57 628 l 176 415 l 157 393 q 46 156 46 269 q 153 -17 46 65 l 336 131 q 388 11 344 58 q 405 -5 397 1 q 418 -17 413 -11 l 565 99 m 261 365 l 336 333 l 336 165 l 247 92 q 161 243 161 171 q 178 354 161 285 q 192 396 188 396 l 261 365 m 336 526 l 336 361 l 204 418 l 101 604 l 336 526 m 74 786 l 104 769 l 213 879 l 415 769 l 503 860 l 272 992 l 74 786 z "},"":{"ha":567,"x_min":46,"x_max":565,"o":"m 565 99 l 551 115 q 546 113 549 113 l 544 111 l 542 108 q 508 97 517 97 q 474 151 475 101 l 474 163 l 474 438 q 474 474 474 457 q 475 506 474 490 q 524 643 476 571 l 506 654 q 443 624 474 624 q 269 678 374 624 q 261 682 264 681 q 256 685 258 683 q 86 626 186 626 l 71 626 q 68 628 69 626 l 61 628 q 57 629 57 628 l 176 415 l 157 393 q 46 156 46 269 q 153 -17 46 65 l 336 131 q 388 11 344 58 q 405 -5 397 1 q 418 -17 413 -11 l 565 99 m 261 365 l 336 333 l 336 165 l 247 92 q 161 243 161 171 q 178 354 161 285 q 192 396 188 396 l 261 365 m 336 526 l 336 361 l 204 418 l 101 604 l 336 526 m 51 843 l 81 822 l 149 876 l 332 771 l 525 939 l 496 961 l 404 881 l 219 985 l 51 843 z "},"":{"ha":567,"x_min":46,"x_max":565,"o":"m 565 99 l 551 115 q 546 113 549 113 l 544 111 l 542 108 q 508 97 517 97 q 474 151 475 101 l 474 163 l 474 438 q 474 474 474 457 q 475 506 474 490 q 524 643 476 571 l 506 654 q 443 624 474 624 q 269 678 374 624 q 261 682 264 681 q 256 685 258 683 q 86 626 186 626 l 71 626 q 68 628 69 626 l 61 628 q 57 629 57 628 l 176 415 l 157 393 q 46 156 46 269 q 153 -17 46 65 l 336 131 q 388 11 344 58 q 405 -5 397 1 q 418 -17 413 -11 l 565 99 m 261 365 l 336 333 l 336 165 l 247 92 q 161 243 161 171 q 178 354 161 285 q 192 396 188 396 l 261 365 m 336 526 l 336 361 l 204 418 l 101 604 l 336 526 m 94 878 l 182 790 l 268 878 l 182 965 l 94 878 m 351 878 l 439 790 l 525 878 l 439 965 l 351 878 z "},"":{"ha":567,"x_min":46,"x_max":565,"o":"m 565 99 l 551 115 q 546 113 549 113 l 544 111 l 542 108 q 508 97 517 97 q 474 151 475 101 l 474 163 l 474 438 q 474 474 474 457 q 475 506 474 490 q 524 643 476 571 l 506 654 q 443 624 474 624 q 269 678 374 624 q 261 682 264 681 q 256 685 258 683 q 86 626 186 626 l 71 626 q 68 628 69 626 l 61 628 q 57 629 57 628 l 176 415 l 157 393 q 46 156 46 269 q 153 -17 46 65 l 336 131 q 388 11 344 58 q 405 -5 397 1 q 418 -17 413 -11 l 565 99 m 261 365 l 336 333 l 336 165 l 247 92 q 161 243 161 171 q 178 354 161 285 q 192 396 188 396 l 261 365 m 336 526 l 336 361 l 204 418 l 101 604 l 336 526 m 329 729 l 329 728 q 413 789 367 728 q 458 890 458 849 q 329 1036 458 996 l 324 1033 q 200 875 200 971 q 329 729 200 768 m 371 788 l 371 786 q 347 794 353 790 q 251 903 251 833 q 254 921 251 910 q 285 978 263 956 q 365 938 325 978 q 406 856 406 897 q 371 788 406 814 z "},"":{"ha":724,"x_min":42,"x_max":714,"o":"m 328 60 l 328 58 q 500 -17 426 32 l 699 122 l 686 142 l 586 69 q 468 133 529 113 l 468 265 l 714 476 l 540 692 l 424 622 q 244 685 346 628 q 100 621 181 621 l 76 621 q 63 624 69 624 q 53 626 57 625 l 169 410 q 42 163 42 282 q 156 -17 42 56 l 328 60 m 332 269 l 332 96 l 257 63 q 154 249 154 142 l 154 261 q 189 392 154 324 l 332 269 m 332 522 l 332 304 l 199 415 l 96 597 l 332 522 m 468 308 l 468 597 l 601 425 l 468 308 z "},"":{"ha":426,"x_min":43,"x_max":426,"o":"m 194 -79 l 426 110 l 413 129 l 353 82 l 233 136 l 233 558 l 349 493 l 418 596 l 257 683 q 43 550 149 581 l 43 531 q 97 464 97 531 l 97 181 q 58 76 97 101 l 58 58 q 243 0 149 46 l 90 -122 q 146 -164 114 -122 q 178 -233 178 -208 q 154 -299 178 -260 q 151 -304 154 -301 l 160 -311 q 258 -182 258 -262 q 194 -79 258 -143 z "},"":{"ha":494,"x_min":46,"x_max":485,"o":"m 467 119 l 453 139 l 354 69 q 233 132 308 94 l 233 260 l 485 468 l 315 685 q 196 619 263 653 q 46 549 129 585 l 51 533 q 97 481 97 533 l 97 194 l 97 179 q 51 85 94 106 l 51 69 q 265 -17 146 53 l 467 119 m 233 306 l 233 603 l 375 421 l 233 306 m 381 796 l 235 963 l 114 963 l 163 842 l 381 796 z "},"":{"ha":494,"x_min":46,"x_max":485,"o":"m 467 119 l 453 139 l 354 69 q 233 132 308 94 l 233 260 l 485 468 l 315 685 q 196 619 263 653 q 46 549 129 585 l 51 533 q 97 481 97 533 l 97 194 l 97 179 q 51 85 94 106 l 51 69 q 265 -17 146 53 l 467 119 m 233 306 l 233 603 l 375 421 l 233 306 m 114 796 l 332 842 l 381 963 l 260 963 l 114 796 z "},"":{"ha":497,"x_min":33,"x_max":485,"o":"m 467 119 l 453 139 l 354 69 q 233 132 308 94 l 233 260 l 485 468 l 315 685 q 196 619 263 653 q 46 549 129 585 l 51 533 q 97 481 97 533 l 97 194 l 97 179 q 51 85 94 106 l 51 69 q 265 -17 146 53 l 467 119 m 233 306 l 233 603 l 375 421 l 233 306 m 33 786 l 64 769 l 172 879 l 375 769 l 463 860 l 232 992 l 33 786 z "},"":{"ha":494,"x_min":32,"x_max":485,"o":"m 467 119 l 453 139 l 354 69 q 233 132 308 94 l 233 260 l 485 468 l 315 685 q 196 619 263 653 q 46 549 129 585 l 51 533 q 97 481 97 533 l 97 194 l 97 179 q 51 85 94 106 l 51 69 q 265 -17 146 53 l 467 119 m 233 306 l 233 603 l 375 421 l 233 306 m 32 878 l 119 790 l 206 878 l 119 965 l 32 878 m 289 878 l 376 790 l 463 878 l 376 965 l 289 878 z "},"":{"ha":339,"x_min":36,"x_max":329,"o":"m 329 96 l 313 119 l 271 85 l 232 119 l 232 549 l 279 592 l 164 686 l 49 596 l 97 554 l 97 199 q 53 108 97 124 l 53 94 q 116 49 83 76 q 185 -17 149 21 l 329 96 m 303 796 l 157 963 l 36 963 l 85 842 l 303 796 z "},"":{"ha":339,"x_min":36,"x_max":329,"o":"m 329 96 l 313 119 l 271 85 l 232 119 l 232 549 l 279 592 l 164 686 l 49 596 l 97 554 l 97 199 q 53 108 97 124 l 53 94 q 116 49 83 76 q 185 -17 149 21 l 329 96 m 36 796 l 254 842 l 303 963 l 182 963 l 36 796 z "},"":{"ha":339,"x_min":-44,"x_max":383,"o":"m 329 96 l 313 119 l 271 85 l 232 119 l 232 549 l 279 592 l 164 686 l 49 596 l 97 554 l 97 199 q 53 108 97 124 l 53 94 q 116 49 83 76 q 185 -17 149 21 l 329 96 m -44 786 l -14 769 l 93 879 l 296 769 l 383 860 l 153 992 l -44 786 z "},"":{"ha":339,"x_min":-44,"x_max":385,"o":"m 329 96 l 313 119 l 271 85 l 232 119 l 232 549 l 279 592 l 164 686 l 49 596 l 97 554 l 97 199 q 53 108 97 124 l 53 94 q 116 49 83 76 q 185 -17 149 21 l 329 96 m -44 878 l 42 790 l 128 878 l 42 965 l -44 878 m 211 878 l 299 790 l 385 878 l 299 965 l 211 878 z "},"":{"ha":617,"x_min":17,"x_max":613,"o":"m 17 582 l 33 560 q 68 574 53 574 q 99 526 97 574 l 99 522 l 99 500 q 97 494 97 499 l 97 133 l 43 83 l 161 -17 l 281 81 l 233 131 l 233 511 l 329 590 l 383 535 l 383 186 q 418 33 383 82 q 445 3 433 15 q 467 -17 457 -10 l 613 100 l 596 126 q 585 118 585 118 l 585 117 q 553 101 565 101 q 519 168 519 101 l 519 444 q 546 575 519 535 q 571 606 560 593 q 590 626 582 618 l 571 649 l 506 586 l 406 686 l 233 543 q 214 624 233 592 q 154 686 200 646 l 17 582 m 72 843 l 101 822 l 169 876 l 353 771 l 546 939 l 517 961 l 425 881 l 240 985 l 72 843 z "},"":{"ha":540,"x_min":31,"x_max":485,"o":"m 485 92 l 485 585 q 265 685 365 617 q 69 572 178 606 l 69 256 q 68 210 69 235 q 64 154 67 185 q 31 104 61 126 l 31 86 q 283 -17 161 75 q 328 13 303 -1 q 381 43 353 28 q 422 64 396 51 q 485 92 449 76 m 204 578 l 349 515 l 349 94 l 204 157 l 204 578 m 403 796 l 257 963 l 136 963 l 185 842 l 403 796 z "},"":{"ha":540,"x_min":31,"x_max":485,"o":"m 485 92 l 485 585 q 265 685 365 617 q 69 572 178 606 l 69 256 q 68 210 69 235 q 64 154 67 185 q 31 104 61 126 l 31 86 q 283 -17 161 75 q 328 13 303 -1 q 381 43 353 28 q 422 64 396 51 q 485 92 449 76 m 204 578 l 349 515 l 349 94 l 204 157 l 204 578 m 136 796 l 354 842 l 403 963 l 282 963 l 136 796 z "},"":{"ha":540,"x_min":31,"x_max":485,"o":"m 485 92 l 485 585 q 265 685 365 617 q 69 572 178 606 l 69 256 q 68 210 69 235 q 64 154 67 185 q 31 104 61 126 l 31 86 q 283 -17 161 75 q 328 13 303 -1 q 381 43 353 28 q 422 64 396 51 q 485 92 449 76 m 204 578 l 349 515 l 349 94 l 204 157 l 204 578 m 56 786 l 86 769 l 194 879 l 397 769 l 485 860 l 254 992 l 56 786 z "},"":{"ha":540,"x_min":31,"x_max":507,"o":"m 485 92 l 485 585 q 265 685 365 617 q 69 572 178 606 l 69 256 q 68 210 69 235 q 64 154 67 185 q 31 104 61 126 l 31 86 q 283 -17 161 75 q 328 13 303 -1 q 381 43 353 28 q 422 64 396 51 q 485 92 449 76 m 204 578 l 349 515 l 349 94 l 204 157 l 204 578 m 33 843 l 63 822 l 131 876 l 314 771 l 507 939 l 478 961 l 386 881 l 201 985 l 33 843 z "},"":{"ha":540,"x_min":31,"x_max":485,"o":"m 485 92 l 485 585 q 265 685 365 617 q 69 572 178 606 l 69 256 q 68 210 69 235 q 64 154 67 185 q 31 104 61 126 l 31 86 q 283 -17 161 75 q 328 13 303 -1 q 381 43 353 28 q 422 64 396 51 q 485 92 449 76 m 204 578 l 349 515 l 349 94 l 204 157 l 204 578 m 43 878 l 131 790 l 217 878 l 131 965 l 43 878 m 300 878 l 388 790 l 474 878 l 388 965 l 300 878 z "},"":{"ha":926,"x_min":103,"x_max":824,"o":"m 464 963 l 103 463 l 464 -35 l 824 463 l 464 963 m 464 839 l 738 463 l 464 88 l 190 463 l 464 839 z "},"":{"ha":533,"x_min":-18,"x_max":585,"o":"m 444 596 l 444 594 q 360 630 404 607 q 264 685 315 653 q 71 572 193 614 l 71 221 q 25 96 71 142 l 15 86 q -18 3 -18 49 q 29 -46 -18 -46 q 74 -1 74 -46 q 69 10 71 4 q 64 21 67 15 q 54 58 54 54 q 78 78 54 78 l 79 78 l 81 78 q 122 71 97 78 q 226 21 193 39 q 283 -17 269 -3 q 443 76 343 35 q 482 93 479 90 l 482 565 l 585 686 l 543 710 l 444 596 m 204 158 l 204 244 l 347 411 l 347 96 l 204 158 m 204 317 l 204 576 l 347 514 l 347 483 l 204 317 z "},"":{"ha":624,"x_min":22,"x_max":615,"o":"m 22 561 l 40 539 l 68 561 l 97 539 l 97 172 q 58 107 97 121 l 58 88 q 210 -17 124 61 l 392 147 q 404 65 392 96 q 476 -17 422 18 l 615 89 l 594 111 q 563 97 581 97 q 526 160 526 97 l 526 544 l 572 585 l 456 686 l 343 585 l 392 544 l 392 185 l 294 96 l 233 144 l 233 544 l 279 585 l 164 686 l 22 561 m 446 796 l 300 963 l 179 963 l 228 842 l 446 796 z "},"":{"ha":624,"x_min":22,"x_max":615,"o":"m 22 561 l 40 539 l 68 561 l 97 539 l 97 172 q 58 107 97 121 l 58 88 q 210 -17 124 61 l 392 147 q 404 65 392 96 q 476 -17 422 18 l 615 89 l 594 111 q 563 97 581 97 q 526 160 526 97 l 526 544 l 572 585 l 456 686 l 343 585 l 392 544 l 392 185 l 294 96 l 233 144 l 233 544 l 279 585 l 164 686 l 22 561 m 179 796 l 397 842 l 446 963 l 325 963 l 179 796 z "},"":{"ha":624,"x_min":22,"x_max":615,"o":"m 22 561 l 40 539 l 68 561 l 97 539 l 97 172 q 58 107 97 121 l 58 88 q 210 -17 124 61 l 392 147 q 404 65 392 96 q 476 -17 422 18 l 615 89 l 594 111 q 563 97 581 97 q 526 160 526 97 l 526 544 l 572 585 l 456 686 l 343 585 l 392 544 l 392 185 l 294 96 l 233 144 l 233 544 l 279 585 l 164 686 l 22 561 m 97 786 l 128 769 l 236 879 l 439 769 l 526 860 l 296 992 l 97 786 z "},"":{"ha":624,"x_min":22,"x_max":615,"o":"m 22 561 l 40 539 l 68 561 l 97 539 l 97 172 q 58 107 97 121 l 58 88 q 210 -17 124 61 l 392 147 q 404 65 392 96 q 476 -17 422 18 l 615 89 l 594 111 q 563 97 581 97 q 526 160 526 97 l 526 544 l 572 585 l 456 686 l 343 585 l 392 544 l 392 185 l 294 96 l 233 144 l 233 544 l 279 585 l 164 686 l 22 561 m 104 878 l 192 790 l 278 878 l 192 965 l 104 878 m 361 878 l 449 790 l 535 878 l 449 965 l 361 878 z "},"":{"ha":531,"x_min":6,"x_max":517,"o":"m 6 568 l 24 547 l 26 550 q 28 551 28 551 q 31 553 29 551 q 65 569 51 569 q 99 519 96 569 l 99 515 l 99 493 q 97 488 97 492 l 97 147 q 53 17 97 82 q 8 -87 8 -49 q 50 -174 8 -144 q 146 -200 85 -200 q 224 -192 179 -200 q 317 -132 317 -174 q 289 -103 317 -103 q 231 -137 265 -103 q 143 -171 190 -171 q 72 -149 101 -171 q 43 -89 43 -128 q 71 -24 43 -51 q 135 22 107 4 q 182 51 163 40 q 318 139 263 100 q 406 210 374 178 q 517 450 517 318 l 517 463 q 515 474 517 469 q 490 585 507 543 q 426 681 468 636 l 236 528 q 172 667 236 621 q 156 678 161 674 q 147 685 150 683 l 6 568 m 235 493 l 329 567 q 382 397 382 490 l 382 389 l 382 381 q 337 234 376 306 q 235 121 297 163 l 235 493 m 132 796 l 350 842 l 399 963 l 278 963 l 132 796 z "},"":{"ha":531,"x_min":6,"x_max":517,"o":"m 6 568 l 24 547 l 26 550 q 28 551 28 551 q 31 553 29 551 q 65 569 51 569 q 99 519 96 569 l 99 515 l 99 493 q 97 488 97 492 l 97 147 q 53 17 97 82 q 8 -87 8 -49 q 50 -174 8 -144 q 146 -200 85 -200 q 224 -192 179 -200 q 317 -132 317 -174 q 289 -103 317 -103 q 231 -137 265 -103 q 143 -171 190 -171 q 72 -149 101 -171 q 43 -89 43 -128 q 71 -24 43 -51 q 135 22 107 4 q 182 51 163 40 q 318 139 263 100 q 406 210 374 178 q 517 450 517 318 l 517 463 q 515 474 517 469 q 490 585 507 543 q 426 681 468 636 l 236 528 q 172 667 236 621 q 156 678 161 674 q 147 685 150 683 l 6 568 m 235 493 l 329 567 q 382 397 382 490 l 382 389 l 382 381 q 337 234 376 306 q 235 121 297 163 l 235 493 m 50 876 l 138 789 l 224 876 l 138 964 l 50 876 m 307 876 l 394 789 l 481 876 l 394 964 l 307 876 z "},"":{"ha":681,"x_min":104,"x_max":576,"o":"m 154 407 l 154 406 q 104 296 133 347 l 528 294 q 553 355 540 326 q 576 407 565 383 l 154 407 z "},"":{"ha":694,"x_min":25,"x_max":669,"o":"m 346 619 l 25 619 l 25 547 l 306 547 l 235 418 l 25 418 l 25 346 l 196 346 l 128 225 l 206 175 l 299 346 l 669 346 l 669 418 l 338 418 l 410 547 l 669 547 l 669 619 l 450 619 l 518 746 l 440 793 l 346 619 z "},"":{"ha":926,"x_min":26,"x_max":901,"o":"m 467 406 l 467 404 q 688 258 563 258 q 842 316 783 258 q 901 469 901 374 q 844 624 901 565 q 692 683 788 683 q 463 539 563 683 q 236 683 364 683 q 86 622 147 683 q 26 471 26 563 q 86 319 26 381 q 236 258 147 258 q 467 406 363 258 m 414 472 l 414 471 q 347 389 364 404 q 254 349 303 349 q 166 383 201 349 q 131 469 131 417 q 140 517 131 494 q 167 557 150 540 q 206 583 183 574 q 254 593 229 593 q 406 482 335 592 q 410 476 408 479 q 414 472 413 474 m 514 472 l 514 471 q 581 553 564 538 q 674 593 625 593 q 762 559 726 593 q 797 472 797 525 q 762 383 797 419 q 674 349 726 347 q 522 460 593 350 q 514 472 515 465 z "},"":{"ha":694,"x_min":46,"x_max":647,"o":"m 647 213 l 46 213 l 46 82 l 647 82 l 647 213 m 647 853 l 46 615 l 46 489 l 647 251 l 647 390 l 208 551 l 647 714 l 647 853 z "},"":{"ha":694,"x_min":46,"x_max":647,"o":"m 46 82 l 647 82 l 647 213 l 46 213 l 46 82 m 46 251 l 647 489 l 647 615 l 46 853 l 46 714 l 486 551 l 47 390 l 46 251 z "},"":{"ha":679,"x_min":10,"x_max":679,"o":"m 679 -178 l 68 1004 l 10 974 l 619 -210 l 679 -178 z "},"":{"ha":926,"x_min":47,"x_max":854,"o":"m 842 1042 l 47 1042 l 47 893 l 381 372 l 47 -196 l 47 -346 l 854 -346 l 854 -11 l 721 -11 l 713 -217 l 206 -217 l 547 372 l 204 911 l 700 911 l 714 710 l 842 710 l 842 1042 z "},"":{"ha":926,"x_min":33,"x_max":893,"o":"m 33 1042 l 33 928 l 136 928 l 136 -232 l 33 -232 l 33 -346 l 360 -346 l 360 -232 l 263 -232 l 263 928 l 664 928 l 664 -232 l 565 -232 l 565 -346 l 893 -346 l 893 -232 l 792 -232 l 792 928 l 893 928 l 893 1042 l 33 1042 z "},"":{"ha":753,"x_min":1,"x_max":753,"o":"m 93 0 l 231 0 l 231 560 l 525 560 l 525 0 l 661 0 l 661 560 l 753 560 l 753 667 l 1 667 l 1 560 l 93 560 l 93 0 z "},"":{"ha":694,"x_min":108,"x_max":585,"o":"m 108 -331 q 186 -342 142 -342 q 372 -275 315 -342 q 424 -82 424 -215 l 424 -42 q 422 -22 422 -35 l 422 786 l 422 806 q 501 907 428 907 q 558 894 526 907 l 585 1026 q 475 1040 535 1040 q 300 947 356 1040 q 272 818 272 900 l 272 747 q 271 736 271 742 q 271 725 271 731 l 271 -96 q 260 -176 271 -151 q 192 -212 240 -212 q 135 -199 161 -212 l 108 -331 z "},"":{"ha":1019,"x_min":42,"x_max":976,"o":"m 42 0 l 446 0 l 446 113 q 204 483 204 235 l 204 486 l 204 488 q 289 719 207 622 q 508 824 378 824 q 729 718 644 824 q 813 481 806 619 l 813 461 q 742 258 807 349 q 572 114 676 167 l 572 0 l 976 0 l 976 122 l 726 121 q 958 490 958 271 q 831 815 958 683 q 510 947 703 947 q 188 815 315 947 q 60 490 60 683 q 290 122 60 261 l 42 122 l 42 0 z "},"":{"ha":926,"x_min":0,"x_max":926,"o":"m 926 1149 l 567 1149 l 357 401 l 322 256 l 317 233 q 296 138 301 168 l 289 136 q 281 185 282 164 q 261 268 269 232 q 249 329 253 304 l 197 506 l 0 506 l 0 389 l 115 389 l 221 0 l 379 0 l 671 1031 l 926 1031 l 926 1149 z "},"":{"ha":694,"x_min":13,"x_max":681,"o":"m 88 221 l 88 219 q 210 307 151 308 q 274 290 239 304 q 333 261 290 285 q 392 238 333 261 q 475 215 446 215 q 681 385 614 215 l 604 436 q 493 349 560 349 q 358 393 444 349 q 299 417 358 393 q 214 440 239 440 q 13 274 85 440 l 88 221 m 88 483 l 88 482 q 210 569 151 571 q 274 553 238 568 q 371 504 322 529 q 475 478 429 478 q 681 647 607 478 l 604 697 q 493 610 546 610 q 358 654 444 610 q 357 656 357 654 l 354 657 q 214 703 263 703 q 13 536 85 703 l 88 483 z "},"":{"ha":906,"x_min":1,"x_max":904,"o":"m 1 0 l 904 0 l 525 926 l 379 926 l 1 0 m 196 122 l 453 758 l 707 122 l 196 122 z "},"":{"ha":926,"x_min":103,"x_max":824,"o":"m 464 963 l 103 463 l 464 -35 l 824 463 l 464 963 m 464 839 l 738 463 l 464 88 l 190 463 l 464 839 z "},"":{"ha":1981,"x_min":15,"x_max":1965,"o":"m 1965 -51 l 1965 1111 l 15 1111 l 15 -51 l 1965 -51 m 1931 781 q 1900 711 1931 740 q 1829 682 1869 682 l 1626 682 q 1578 619 1578 682 l 1578 200 q 1604 142 1578 158 l 1604 64 q 1504 183 1504 86 l 1504 631 q 1664 764 1504 764 q 1731 760 1686 764 q 1771 758 1754 758 q 1799 757 1788 757 q 1854 786 1854 757 q 1797 813 1854 813 q 1769 812 1786 813 q 1731 810 1753 811 q 1692 808 1708 808 q 1665 807 1676 807 q 1504 929 1504 807 l 1504 1111 l 1583 1111 l 1583 929 q 1635 881 1583 881 l 1840 881 q 1904 851 1878 881 q 1931 781 1931 822 m 1393 189 q 1360 101 1393 135 q 1274 67 1328 67 l 882 67 q 813 94 840 67 q 785 164 785 122 q 810 236 785 207 q 875 265 835 265 l 1263 265 l 1263 192 l 888 192 q 860 167 860 192 q 890 138 860 138 l 1238 138 q 1322 200 1322 138 l 1322 306 q 1260 368 1322 368 l 913 368 q 819 403 854 368 q 785 496 785 438 l 785 619 q 822 722 785 682 q 921 761 858 761 l 1263 761 q 1386 656 1368 761 l 1317 656 q 1257 685 1289 685 l 918 685 q 861 625 861 685 l 861 493 q 918 442 861 442 l 1260 442 q 1358 410 1322 442 q 1393 319 1393 378 l 1393 189 m 689 1111 l 688 161 q 658 89 688 119 q 586 58 628 58 q 514 89 542 58 q 486 165 486 119 q 485 310 486 251 q 483 400 485 368 q 363 529 481 413 l 231 658 q 193 678 211 678 q 169 669 179 678 q 158 625 158 632 l 158 194 q 207 135 158 135 l 319 135 q 354 164 338 143 l 428 164 q 321 64 408 64 l 207 64 q 85 197 85 64 l 85 656 q 121 726 85 699 q 199 750 153 750 q 271 724 244 750 l 519 478 q 563 374 563 435 l 563 164 q 589 135 563 135 q 606 145 597 135 q 614 164 614 156 l 611 1111 l 689 1111 z "},"":{"ha":332,"x_min":40,"x_max":360,"o":"m 221 138 l 221 829 l 338 799 l 360 907 l 225 939 q 152 880 188 907 q 85 831 117 853 l 85 222 l 85 208 l 85 194 q 40 100 83 124 l 40 83 q 207 -17 128 56 l 353 100 l 333 118 l 290 83 q 274 97 282 90 q 257 111 265 104 l 221 138 z "},"":{"ha":694,"x_min":38,"x_max":656,"o":"m 104 817 l 104 815 q 358 731 247 799 q 435 664 408 700 q 456 631 444 653 q 483 578 468 610 q 488 568 486 572 q 490 561 489 564 q 503 533 497 546 q 514 513 510 521 q 425 581 464 561 q 314 601 381 601 q 113 504 192 601 q 38 288 39 414 l 38 286 l 38 283 q 135 71 38 156 q 361 -11 233 -12 q 599 121 511 -10 q 656 360 656 207 l 656 372 l 656 383 q 479 781 647 629 q 121 929 358 893 l 104 817 m 349 497 l 349 496 q 478 439 429 496 q 528 300 528 382 q 476 157 528 217 q 344 97 426 97 q 213 160 264 97 q 163 299 163 218 q 215 438 163 378 q 349 497 269 494 z "}}}
